<svg xmlns="http://www.w3.org/2000/svg" width="400" height="210" viewBox="0 0 400 210">
    <defs>
        <clipPath id="7zdxfjbnca">
            <path data-name="사각형 4603" style="fill:none" d="M0 0h400v210H0z"/>
        </clipPath>
    </defs>
    <g data-name="그룹 13220" style="clip-path:url(#7zdxfjbnca)">
        <path data-name="패스 7785" d="M89.7 4.1c-.416.2-.827-.009-1.227-.006a46.171 46.171 0 0 0-11.829 1.547 36.276 36.276 0 0 0-16.657 9.918 38.526 38.526 0 0 0-9.1 14.813c-.214.637-.077.9.556 1.062a22.721 22.721 0 0 0 7.352.553c1.32-.108 2.641-.055 3.962-.16a24.742 24.742 0 0 0 9.906-3.16 79.791 79.791 0 0 0 9.693-6.635 77.358 77.358 0 0 1 12.017-7.859 21.736 21.736 0 0 1 8.01-2.536 7.383 7.383 0 0 1 3.52.51 5.158 5.158 0 0 1 3.085 4.134 1.056 1.056 0 0 1-1.316 1.272 18.305 18.305 0 0 0-5.576.345c-.49.082-.963.262-1.452.352-.669.123-.73.515-.62 1.1a69.475 69.475 0 0 1 1.326 13.621 43.488 43.488 0 0 1-3.665 17.091A45.368 45.368 0 0 1 87.41 65.209c-.814.773-1.566 1.612-2.34 2.427-.127.134-.375.266-.234.489.106.167.319.054.487.017 10.311-2.255 20.413-5.134 29.976-9.726a83.238 83.238 0 0 0 21.482-14.431 78.427 78.427 0 0 0 13.674-16.994A76.678 76.678 0 0 0 158 9.244c.3-1.044.256-1.084-.852-1.084q-26.4 0-52.8.024a15.943 15.943 0 0 1-6.2-1.066c-2.24-.914-4.527-1.709-6.793-2.558a2.317 2.317 0 0 1-.253-.129c.089-.312.323-.226.5-.226h90.163c1.483 0 1.522.051.864 1.384a111.809 111.809 0 0 1-12.084 18.992 123.4 123.4 0 0 1-10.909 12.137 122.212 122.212 0 0 1-19.228 15.462 142.789 142.789 0 0 1-22.282 11.769q-10.447 4.43-21.091 8.338c-4.9 1.795-9.845 3.439-14.8 5.073a74.544 74.544 0 0 0-15.018 6.506 23.284 23.284 0 0 0-7.3 6.588c-3.7 5.311-4.044 11-1.264 16.825 2.171 4.551 5.443 8.286 8.982 11.812 4.891 4.871 10.2 9.262 15.508 13.657a155.956 155.956 0 0 1 13.259 11.678 83.375 83.375 0 0 1 17.117 25.58 68.661 68.661 0 0 1 4.67 16.236 62.684 62.684 0 0 1 .686 13.143c-.084 1.444-.057 2.895-.176 4.341-.1 1.25-.2 1.378-1.413 1.378H91.83c-1.051 0-1.151-.136-.608-1.051A54.6 54.6 0 0 0 96.5 192.73a39.3 39.3 0 0 0 2.034-14.465 34.936 34.936 0 0 0-6.561-18.546 145.255 145.255 0 0 0-9.943-11.984c-4.727-5.257-9.707-10.273-14.452-15.514a118.291 118.291 0 0 1-10.3-12.654 50.3 50.3 0 0 1-7.469-15.111 28.97 28.97 0 0 1-.922-10.684c.61-5.778 3.219-10.593 6.947-14.9a47.281 47.281 0 0 1 10.3-8.629c4.824-3.112 9.807-5.98 14.414-9.424a28.166 28.166 0 0 0 8.866-10.29 34.492 34.492 0 0 0 3.327-12.526 65.268 65.268 0 0 0-.617-14.119c-.025-.168.019-.387-.181-.456-.256-.09-.409.129-.572.273-1.571 1.39-3.135 2.784-4.807 4.058a45.482 45.482 0 0 1-12.625 6.766 29.846 29.846 0 0 1-21.308-.189c-.535-.209-1.094-.36-1.613-.6-.6-.278-.885-.129-1.091.51a24.641 24.641 0 0 1-3.45 6.787 18.073 18.073 0 0 1-8.565 6.406 46.1 46.1 0 0 1-10.73 2.921 37.82 37.82 0 0 1-15.145-.7A28.018 28.018 0 0 1 .531 43.483a3.07 3.07 0 0 1-.312-.323c-.164-.2-.311-.438-.149-.681s.409-.079.613-.018a28.462 28.462 0 0 0 6.762 1.175A13.926 13.926 0 0 0 17.381 40c2.522-2.133 4.84-4.478 7.18-6.8a17.143 17.143 0 0 1 13.274-5.324 16.681 16.681 0 0 1 7.529 1.991 5.048 5.048 0 0 0 .531.276c.247.1.482.407.741.254.275-.162.115-.514.08-.765a39.725 39.725 0 0 1-.14-4.866 13.827 13.827 0 0 1 1.248-5.9A31.887 31.887 0 0 1 59.685 4.523 26.729 26.729 0 0 1 74.66 0a27.117 27.117 0 0 1 9.969 2.1c1.5.612 3.046 1.115 4.566 1.679.171.063.406.04.509.316" transform="translate(5 1.999)" style="fill:#002853"/>
        <path data-name="패스 7786" d="M274.59 204.193c1.092-.21 2.177-.486 3.279-.614 2.063-.24 4.067-.766 6.092-1.183a166 166 0 0 0 16.832-4.208c3.239-1.028 6.361-2.36 9.517-3.606a136.962 136.962 0 0 0 21.917-10.84 112.951 112.951 0 0 0 12.522-9 94.779 94.779 0 0 0 16.275-17.1 89.293 89.293 0 0 0 12.186-23.2 88.118 88.118 0 0 0 4.375-18.639 81.535 81.535 0 0 0 .729-14.127 98.132 98.132 0 0 0-2.694-19.329 117.567 117.567 0 0 0-4.08-12.609 75.452 75.452 0 0 0-8.754-16.251 87.038 87.038 0 0 0-26.812-25.211 84.72 84.72 0 0 0-23.158-9.594 88.044 88.044 0 0 0-18.479-2.622c-2.2-.075-4.389-.093-6.584-.094q-48.525-.012-97.051 0c-1.52 0-3.039.05-4.559.064-.269 0-.626.048-.772-.177-.174-.27.151-.49.295-.7a62.9 62.9 0 0 0 5.889-10.335.957.957 0 0 1 .992-.628c1.048 0 2.1.007 3.145.007q48.076 0 96.152-.007a100.82 100.82 0 0 1 14.9 1.137 96.852 96.852 0 0 1 54.962 28.233 99.893 99.893 0 0 1 14.582 18.96 98.649 98.649 0 0 1 7.925 16.947A99.7 99.7 0 0 1 389 88.316c.58 3.875.924 7.774 1.151 11.693a76.673 76.673 0 0 1-1.017 15.363 95.833 95.833 0 0 1-4.906 19.28 93.525 93.525 0 0 1-7.509 16.064 99.214 99.214 0 0 1-8.432 12.192 93.316 93.316 0 0 1-10.861 11.15 99.66 99.66 0 0 1-20.976 13.912 157.25 157.25 0 0 1-20.885 8.2c-4.72 1.566-9.514 2.84-14.35 3.949a194.08 194.08 0 0 1-14.4 2.716c-3.6.543-7.209.991-10.817 1.462a10.805 10.805 0 0 1-1.394.008l-.009-.111" transform="translate(5 1.999)" style="fill:#002853"/>
        <path data-name="패스 7787" d="M299.414 112.959v-27.82c0-.955.055-1.014 1.021-1.014 7.937 0 15.875-.076 23.81.037a24.361 24.361 0 0 1 14.6 4.652c4.7 3.508 7.377 8.353 8.879 13.94a40.66 40.66 0 0 1 .995 13.32c-.435 6.555-2.253 12.7-6.65 17.794a21.949 21.949 0 0 1-12.416 7.167 30.248 30.248 0 0 1-6.389.637q-10.818-.021-21.639 0c-.274 0-.548-.005-.823.008-1.374.067-1.37.069-1.37-1.348v-27.369zm12.211-.071v17.25c0 .495-.041.968.693.952 4.215-.091 8.439.217 12.646-.186a11.031 11.031 0 0 0 5.833-2.33c3.542-2.773 5.052-6.611 5.595-10.9a35.666 35.666 0 0 0-.328-10.677 14.444 14.444 0 0 0-5.26-9.307c-2.856-2.224-6.211-2.876-9.707-2.965-2.819-.072-5.642-.016-8.462-.015-.99 0-1.007.015-1.007 1.006v17.175" transform="translate(5 1.999)" style="fill:#8d2431"/>
        <path data-name="패스 7788" d="M118.774 112.849v-27.3c0-1.432-.005-1.43 1.44-1.429h8.911c.923 0 .969.061.969.982q0 9.786.007 19.572c0 .324-.182.809.224.934s.536-.371.729-.637c3.549-4.877 8.447-6.492 14.251-5.934a16.834 16.834 0 0 1 5.131 1.264c3.925 1.7 5.88 4.857 6.74 8.856a35.888 35.888 0 0 1 .628 7.676c-.022 7.9 0 15.8 0 23.7 0 1.236-.007 1.172-1.278 1.156-2.969-.037-5.939-.112-8.907.042-.989.051-1.13-.053-1.131-1.051 0-7.573.035-15.147-.022-22.721a16.945 16.945 0 0 0-.877-5.823 5.912 5.912 0 0 0-5.009-4.166 10.269 10.269 0 0 0-6.594 1.129c-1.968 1.109-2.778 2.987-3.3 5.05a23.667 23.667 0 0 0-.57 5.727c-.043 6.749-.018 13.5-.016 20.247 0 1.558.005 1.538-1.555 1.539q-4.53 0-9.058.055c-.581.007-.72-.216-.719-.754q.017-14.06.008-28.12z" transform="translate(5 1.999)" style="fill:#8d2431"/>
        <path data-name="패스 7789" d="M201.985 123.334c0 4-.018 8 .007 12a15.4 15.4 0 0 0 .966 5.727c.227.563.074.683-.509.664q-4.34-.141-8.679 0c-.225.008-.45 0-.673.03a1.105 1.105 0 0 1-1.34-1.068q-.161-.96-.317-1.92c-.044-.265.039-.625-.244-.744-.325-.136-.539.2-.751.386a14.941 14.941 0 0 1-5.038 3.028c-4.919 1.684-9.872 2.063-14.766 0-4.19-1.769-6.164-5.19-6.629-9.586a13.2 13.2 0 0 1 .639-6.2 11.036 11.036 0 0 1 7.5-6.684 59.255 59.255 0 0 1 11.4-2 12.562 12.562 0 0 0 5.618-1.667 3.451 3.451 0 0 0 1.676-2.925 5.169 5.169 0 0 0-5-5.687 16.368 16.368 0 0 0-3.876-.018 5.508 5.508 0 0 0-5.14 4.938c-.221 1.2-.3 1.224-1.525 1.155-2.544-.143-5.088.009-7.632.048h-.673c-.574.021-.808-.216-.733-.818a13.475 13.475 0 0 1 9.03-11.664c3.858-1.493 7.9-1.505 11.96-1.281a26.029 26.029 0 0 1 6.114.979 12.82 12.82 0 0 1 6.318 3.943 10.036 10.036 0 0 1 2.151 5.723c.215 2.1.084 4.195.106 6.292.025 2.449.006 4.9.006 7.348h.038m-11.135 1.478v-2.695c0-.519-.227-.691-.709-.426a14.052 14.052 0 0 1-4.717 1.372 32.39 32.39 0 0 0-6.153 1.2c-3.016 1.094-4.376 3.056-4.266 6.257a4.312 4.312 0 0 0 2.691 3.982c1.723.821 3.554.676 5.369.634a7.71 7.71 0 0 0 7.477-6.522 19.534 19.534 0 0 0 .31-3.8" transform="translate(5 1.999)" style="fill:#8d2431"/>
        <path data-name="패스 7790" d="M248.566 120.69v19.195c0 1.783 0 1.765-1.747 1.783-2.669.026-5.339-.078-8.007.081-1 .06-1.1-.05-1.07-1.034.037-1.3.151-2.594.094-3.894-.013-.289.052-.683-.288-.781-.321-.093-.421.295-.562.507-2.675 4.037-6.616 5.725-11.262 6.178a19.493 19.493 0 0 1-5.871-.4c-5.153-1.064-8.254-4.245-9.541-9.312a24.642 24.642 0 0 1-.745-6c-.033-8.673-.025-17.346-.03-26.019 0-.926.04-.961.976-.962 3.145 0 6.29.024 9.434-.021.757-.01.923.253.922.947-.019 7.623-.048 15.246.009 22.869a17.394 17.394 0 0 0 1 6.1 5.605 5.605 0 0 0 4.408 3.732 9.169 9.169 0 0 0 7.549-1.445 7.494 7.494 0 0 0 2.805-4.56 30.418 30.418 0 0 0 .593-6.778c.033-6.273.012-12.546.012-18.82 0-.275.006-.55-.007-.825-.056-1.207-.058-1.2 1.185-1.2 3.094 0 6.189.018 9.284-.014.732-.007.965.221.894.956-.079.817-.034 1.648-.034 2.472v17.246" transform="translate(5 1.999)" style="fill:#8d2431"/>
        <path data-name="패스 7791" d="M260.442 128.228c1.448 0 2.9.013 4.343-.006.545-.008.815.159.855.755a5.8 5.8 0 0 0 3.29 5.03 10.521 10.521 0 0 0 10.323-.178 4.075 4.075 0 0 0 1.447-5.986 6.9 6.9 0 0 0-2.892-1.948 55.2 55.2 0 0 0-9.071-2.531 33.5 33.5 0 0 1-7.882-2.552c-4.427-2.252-6.282-6.18-5.429-11.066.878-5.031 4-7.957 8.6-9.517a30.738 30.738 0 0 1 12.134-1.15 20.163 20.163 0 0 1 6.873 1.639c4.5 1.992 6.852 5.544 7.608 10.29.358 2.252.112 1.822-1.667 1.832-2.495.015-4.992-.018-7.487.022-.746.012-1.031-.278-1.081-.982-.238-3.36-2.229-4.624-5.234-5.175a15.964 15.964 0 0 0-4.845.024 3.771 3.771 0 0 0-3.642 3.9 3.2 3.2 0 0 0 1.552 2.671 12.38 12.38 0 0 0 3.547 1.567c3 .87 6.085 1.358 9.107 2.122a21.658 21.658 0 0 1 7.977 3.278 9.657 9.657 0 0 1 3.954 8.964 14.772 14.772 0 0 1-.583 3.691 12.727 12.727 0 0 1-6.216 7.19 23.167 23.167 0 0 1-10.049 2.624 27.609 27.609 0 0 1-11.483-1.5 13.578 13.578 0 0 1-8.72-9.738 21.355 21.355 0 0 1-.405-2.361c-.124-.8-.043-.9.8-.906 1.423-.009 2.845 0 4.268 0" transform="translate(5 1.999)" style="fill:#8d2431"/>
        <path data-name="패스 7792" d="M204.292 58.789V36.141c0-1.036.008-1.043 1.034-1.043 2.172 0 4.345.023 6.515-.011.722-.011.944.239.94.955-.026 4.9-.013 9.8-.015 14.7 0 .929.5 1.27 1.375.958.384-.137.342-.456.345-.746q.026-1.8.025-3.6 0-5.625-.008-11.249c0-.9.088-1 .972-1 2.2-.005 4.394.017 6.59-.013.686-.009.9.236.9.918q-.021 22.686.006 45.371c0 .751-.229 1.018-.979 1.006-2.172-.035-4.344-.008-6.515-.02-.871 0-.985-.147-.984-1.013q0-10.761.005-21.523c0-.875-.536-1.224-1.372-.92a.492.492 0 0 0-.353.511v21.823c0 1.105-.017 1.127-1.131 1.128-2.171 0-4.343-.014-6.514.011-.643.007-.85-.2-.848-.869.023-7.575.015-15.149.017-22.723" transform="translate(5 1.999)" style="fill:#002853"/>
        <path data-name="패스 7793" d="M254.32 62.567c-5.166 0-10.332.01-15.5 0a7.4 7.4 0 0 1-7.431-5.59 8.92 8.92 0 0 1-.232-2.6q.143-8.016.005-16.032c-.009-.572.106-1.15.067-1.719-.053-.758.226-.987.981-.972 2.22.046 4.442.015 6.663.018.959 0 .993.028 1 1.028.006 1.65.017 3.3-.019 4.948-.014.674.219.939.9.938q10.407-.021 20.813 0c.672 0 .856-.253.845-.886-.03-1.749.006-3.5-.018-5.248-.007-.572.171-.8.77-.793q3.519.039 7.037 0c.633-.007.837.248.828.84-.018 1.25 0 2.5 0 3.749v21.144c0 1.192 0 1.185-1.214 1.184h-15.5zm-3.145-7.229c3.442 0 6.885-.015 10.327.013.663 0 .946-.151.918-.872-.051-1.3-.04-2.6 0-3.9.019-.652-.22-.883-.865-.881q-10.44.017-20.879-.007c-.634 0-.823.247-.809.847.03 1.273.045 2.549 0 3.821-.028.755.234 1 .988.991 3.442-.033 6.885-.015 10.327-.016" transform="translate(5 1.999)" style="fill:#002853"/>
        <path data-name="패스 7794" d="M202.124 157.326c2.2 0 4.392-.052 6.586.013a14.446 14.446 0 0 1 7.6 2.181 11.072 11.072 0 0 1 5 7.991 22.413 22.413 0 0 1 .015 7.079c-.749 4.649-3.2 7.862-7.679 9.468a17.14 17.14 0 0 1-5.583.926q-6.172.085-12.348 0a16.227 16.227 0 0 1-6.193-1.267 11.015 11.015 0 0 1-6.6-7.924 19.161 19.161 0 0 1 .2-10c1.305-4.467 4.447-6.957 8.859-8a19.188 19.188 0 0 1 4.749-.478c1.8.029 3.593.007 5.389.007zm-.134 7.1v.018c-1.822 0-3.648-.077-5.465.019a5.583 5.583 0 0 0-5.269 3.766 7.569 7.569 0 0 0-.5 3.38c.268 3.681 2.228 6.18 6.161 6.245 3.394.056 6.789.042 10.183 0a5.737 5.737 0 0 0 5.922-4.44 8.719 8.719 0 0 0 .25-2.974c-.183-2.575-1.6-5.334-4.927-5.862a11.864 11.864 0 0 0-1.859-.153h-4.493" transform="translate(5 1.999)" style="fill:#002853"/>
        <path data-name="패스 7795" d="M250.021 179.571h-18.5c-1.085 0-1.136-.051-1.137-1.149v-4.874c0-.99.126-1.106 1.082-1 1.247.134 2.494.038 3.741.06.593.011.854-.263.837-.872a432.617 432.617 0 0 1-.119-5.92c-.006-.436-.185-.612-.616-.663a24.14 24.14 0 0 0-3.588.009c-1.161.038-1.219-.038-1.22-1.206 0-1.675.016-3.35 0-5.025-.006-.6.19-.84.824-.839q18.684.025 37.368.021c.943 0 .981.047.983.962 0 1.75-.025 3.5.017 5.249.015.645-.245.847-.826.831q-1.869-.049-3.739-.079c-.981-.016-1.129.134-1.136 1.108-.013 1.825-.006 3.65-.048 5.475-.016.715.253.984.966.966 1.322-.034 2.646.016 3.969-.015.633-.015.87.151.845.849a46.512 46.512 0 0 0 .027 5.32c.053.687-.311.8-.861.8-1.8-.009-3.6-.008-5.392-.008h-13.479zm-.039-6.96c1.621 0 3.241-.012 4.862.006.6.007.848-.223.842-.84q-.024-2.922.018-5.843c.008-.534-.171-.769-.717-.793-3.34-.148-6.68-.05-10.02-.056-.544 0-.789.268-.778.847q.05 2.847.029 5.693c-.005.7.272 1 .977.992 1.6-.02 3.191-.006 4.787-.006" transform="translate(5 1.999)" style="fill:#002853"/>
        <path data-name="패스 7796" d="M181.817 56.639V38.115c0-.649-.045-1.3-.08-1.946-.027-.494.18-.759.689-.759.374 0 .748-.005 1.123-.005h17.6c1.238 0 1.273.044 1.272 1.249 0 1.65-.023 3.3.016 4.949.017.7-.253.918-.921.914-3.32-.02-6.64-.009-9.96-.01-1.171 0-1.253.067-1.232 1.219.181 9.922.029 19.846.085 29.769.01 1.856-.445 1.777 1.8 1.773q4.531-.007 9.061 0c1.008 0 1.02.012 1.022.987 0 1.725-.017 3.45.013 5.175.012.663-.2.949-.9.946-4.069-.019-8.138.031-12.206-.023a7.371 7.371 0 0 1-7.185-5.113 7.16 7.16 0 0 1-.235-2.078c-.018-6.174-.01-12.348-.01-18.522h.052" transform="translate(5 1.999)" style="fill:#002853"/>
        <path data-name="패스 7797" d="M251.068 82.559H230.25c-1.248 0-1.233 0-1.25-1.284-.021-1.674.1-3.35-.073-5.02-.066-.649.342-.8.832-.759.677.062 1.345-.022 2.017-.023h12.88c.125 0 .25 0 .374.006 1.8.079 1.8.079 1.8-1.692-.008-2.25-.016-4.5-.047-6.748-.006-.444.108-.633.583-.629 2.421.017 4.843.023 7.264 0 .6-.005.8.243.763.81-.173 2.371-.052 4.747-.072 7.12-.01 1.074.169 1.166 1.229 1.161 5.317-.025 10.634-.019 15.95-.032.572 0 .793.237.785.816-.024 1.75-.009 3.5-.011 5.25 0 .971-.043 1.019-1.01 1.019h-21.192" transform="translate(5 1.999)" style="fill:#002853"/>
        <path data-name="패스 7798" d="M201.79 204.765h-20.582c-1.1 0-1.143-.041-1.145-1.131v-4.872c0-1 .076-1.089 1.065-1.042 4.389.21 8.779.052 13.169.09.821.007 1.644-.092 2.465-.083.615.007.824-.222.816-.842-.031-2.348-.018-4.7-.017-7.045 0-.981.032-1.008 1.01-1.008 2.171 0 4.342.024 6.512-.009.723-.011.953.25.943.961-.033 2.323.005 4.647-.024 6.97-.009.71.163 1.022.961 1.031q7.409.089 14.816-.013c1.821-.027 1.8-.054 1.785 1.719a38.507 38.507 0 0 0 .055 4.119c.1.995-.036 1.155-1.027 1.155q-5.65 0-11.3-.01h-9.505z" transform="translate(5 1.999)" style="fill:#002853"/>
        <path data-name="패스 7799" d="M251.848 204.757h-16.024a20.9 20.9 0 0 1-2.166-.12 3.4 3.4 0 0 1-3.111-3.546c-.086-3.5-.026-7-.035-10.5 0-.452.183-.589.637-.584 2.3.024 4.593.035 6.889 0 .632-.009.773.28.77.81q-.012 2.775-.008 5.55c0 1.126.184 1.309 1.311 1.309q13.928 0 27.855-.007c.375 0 .749.008 1.123 0 .4-.009.6.163.6.577q-.009 2.963 0 5.925a.5.5 0 0 1-.537.573c-.2.008-.4.015-.6.015h-16.7" transform="translate(5 1.999)" style="fill:#002853"/>
        <path data-name="패스 7800" d="M250.1 188.305h-20.81c-1.03 0-1.032 0-1.033-1.048 0-1.724.027-3.449-.014-5.173-.017-.7.247-.909.915-.906 4.317.019 8.634.012 12.951.012h28.6c1.193 0 1.212.024 1.21 1.213v4.8c0 1.062-.023 1.1-1.082 1.1H250.1" transform="translate(5 1.999)" style="fill:#002853"/>
    </g>
</svg>
