<svg xmlns="http://www.w3.org/2000/svg" width="240" height="36" viewBox="0 0 240 36">
    <defs>
        <clipPath id="i2dq9m3u0a">
            <path data-name="사각형 4512" transform="translate(0 -.037)" style="fill:none" d="M0 0h240v36H0z"/>
        </clipPath>
    </defs>
    <g transform="translate(0 .037)" style="clip-path:url(#i2dq9m3u0a)">
        <path data-name="패스 3788" d="M254.9 35.712a26.349 26.349 0 0 0 4.009-.874A18.105 18.105 0 0 0 262.937 33a16.305 16.305 0 0 0 5.878-6.052 15.468 15.468 0 0 0 1.636-4.356 17.827 17.827 0 0 0 .445-3.926 15.23 15.23 0 0 0-7.14-12.957 15.6 15.6 0 0 0-6.163-2.242 12.956 12.956 0 0 0-1.884-.123q-38.291-.008-76.581 0H65.765a.458.458 0 0 1 .02-.14c.269-.493.546-.981.811-1.477a.459.459 0 0 1 .486-.268c1.225.021 2.452.015 3.678.015H250.84c1.762 0 3.525-.01 5.287.028a16.345 16.345 0 0 1 4.689.78 17.21 17.21 0 0 1 11.6 12.918 16.34 16.34 0 0 1 .323 4.168 15.372 15.372 0 0 1-1.536 6.25 18.23 18.23 0 0 1-2.934 4.257 17.429 17.429 0 0 1-7.429 4.791 26.983 26.983 0 0 1-2.883.752 12.292 12.292 0 0 1-3.061.294" transform="translate(-33.763 -.747)" style="fill:#fff"/>
        <path data-name="패스 3789" d="M316.427 31.365V18.732c0-.64 0-.64.636-.64h10.144a13.866 13.866 0 0 1 5.172.9 9.631 9.631 0 0 1 3.661 2.535 12.021 12.021 0 0 1 2.609 4.831 18.557 18.557 0 0 1 .567 6.052 16.524 16.524 0 0 1-1.054 5.258 10.717 10.717 0 0 1-2.9 4.3 10.432 10.432 0 0 1-5.035 2.445 19.908 19.908 0 0 1-3.582.27q-4.842-.008-9.684 0c-.536 0-.531 0-.531-.552v-12.76m5.578.027c0 2.7 0 5.4-.006 8.105 0 .265.088.352.335.338.161-.009.323 0 .485 0 1.32 0 2.64.014 3.96 0a12.247 12.247 0 0 0 1.725-.135 5.449 5.449 0 0 0 3.535-2.1 7.839 7.839 0 0 0 1.53-4.132 16.961 16.961 0 0 0 0-3.545 11.658 11.658 0 0 0-.5-2.6 6.047 6.047 0 0 0-2.9-3.578 8.239 8.239 0 0 0-3.679-.817c-1.378-.046-2.759-.012-4.139-.011-.337 0-.339 0-.339.342v8.131" transform="translate(-162.452 -9.287)" style="fill:#fff"/>
        <path data-name="패스 3790" d="M144.328 18.1c.112-.006.2-.016.3-.016 1.55 0 3.1 0 4.65-.012.21 0 .259.074.258.268q-.008 4.693 0 9.386a4.067 4.067 0 0 0 .04.413l.083.031c.084-.1.176-.188.25-.291a6.734 6.734 0 0 1 6.207-2.932 9.35 9.35 0 0 1 2.471.483 5.065 5.065 0 0 1 3.015 2.8 7.663 7.663 0 0 1 .65 2.9c.058 2.129.068 4.26.084 6.39.017 2.259.018 4.518.026 6.776 0 .386 0 .377-.369.377q-2.312 0-4.625.013c-.146 0-.206-.036-.2-.18v-.358c0-3.555.019-7.109-.016-10.664a9.081 9.081 0 0 0-.344-2.288 2.809 2.809 0 0 0-2.825-2.185 5.036 5.036 0 0 0-1.938.248 3.387 3.387 0 0 0-2.2 2.5 9.978 9.978 0 0 0-.311 2.6q0 5.012.005 10.025c0 .246-.059.308-.316.3-1.516-.019-3.032-.014-4.548-.016-.347 0-.344 0-.344-.344V18.1" transform="translate(-74.096 -9.277)" style="fill:#fff"/>
        <path data-name="패스 3791" d="M205.4 51.892h-.434c-1.49.006-2.98.01-4.471.022-.169 0-.2-.1-.223-.22-.088-.468-.17-.936-.256-1.4-.012-.064-.03-.127-.051-.213a.8.8 0 0 0-.144.084 8.031 8.031 0 0 1-4.25 2.069 8.914 8.914 0 0 1-5.159-.454 4.865 4.865 0 0 1-2.973-3.7 6.691 6.691 0 0 1-.007-2.889 4.717 4.717 0 0 1 2.472-3.241 10.825 10.825 0 0 1 3.578-1.046c1.392-.226 2.8-.372 4.182-.637a5.157 5.157 0 0 0 1.522-.677 1.268 1.268 0 0 0 .572-1.064 2.538 2.538 0 0 0-.873-2.336 2.389 2.389 0 0 0-1.217-.484 6.029 6.029 0 0 0-2.532.073 2.636 2.636 0 0 0-1.935 2.186c-.038.185-.027.436-.142.532s-.358.032-.545.033h-3.704c-.443 0-.441 0-.4-.432a5.922 5.922 0 0 1 .953-2.8 6.333 6.333 0 0 1 3.336-2.53 13.281 13.281 0 0 1 5.367-.554 11.391 11.391 0 0 1 3.629.759 4.732 4.732 0 0 1 3.09 3.733 7.4 7.4 0 0 1 .034 1.149c0 3.256-.009 6.513 0 9.769a15.162 15.162 0 0 0 .29 3.328c.071.311.187.612.291.944m-5.664-9.412a.616.616 0 0 0-.11.031 6.631 6.631 0 0 1-2.812.828 10.69 10.69 0 0 0-2.611.551 2.573 2.573 0 0 0-1.8 1.949 2.545 2.545 0 0 0 .325 2.034 2.428 2.428 0 0 0 1.467.95 6.517 6.517 0 0 0 2.156.109 3.653 3.653 0 0 0 3.347-3.351c.063-.942.058-1.889.08-2.833a1.529 1.529 0 0 0-.044-.269" transform="translate(-96.148 -16.507)" style="fill:#fff"/>
        <path data-name="패스 3792" d="M243.719 49.742a2.422 2.422 0 0 0-.174.209 6.506 6.506 0 0 1-3.973 2.76 8.334 8.334 0 0 1-5.542-.458 5.144 5.144 0 0 1-2.906-3.847 13.351 13.351 0 0 1-.349-2.961c-.009-3.989-.006-7.979-.013-11.968 0-.191.057-.247.249-.246q2.35.011 4.7 0c.233 0 .261.095.261.289q-.008 5.371 0 10.741a8.077 8.077 0 0 0 .348 2.468 2.758 2.758 0 0 0 2.759 2.121 9.018 9.018 0 0 0 1.722-.14 2.909 2.909 0 0 0 1.972-1.381 5.294 5.294 0 0 0 .763-2.594c.053-.755.068-1.514.07-2.272q.009-4.487-.007-8.976c0-.214.078-.255.268-.255q2.338.007 4.676 0c.182 0 .276.025.275.248q-.015 5.792-.014 11.584v7.16c0 .178-.048.235-.23.235q-2.249-.007-4.5.008c-.206 0-.219-.091-.219-.247q.006-1.048 0-2.1a2.579 2.579 0 0 0-.053-.362l-.087-.015" transform="translate(-118.472 -17.059)" style="fill:#fff"/>
        <path data-name="패스 3793" d="M288.406 38.536h-2.121c-.131 0-.226-.008-.232-.184a2.473 2.473 0 0 0-2.258-2.621 5.505 5.505 0 0 0-3.072.126 1.651 1.651 0 0 0-1.123 2.023 1.684 1.684 0 0 0 .782.97 6.5 6.5 0 0 0 2.084.8c1.511.366 3.031.694 4.536 1.083a7.983 7.983 0 0 1 3.106 1.493 4.086 4.086 0 0 1 1.575 3.084 6.207 6.207 0 0 1-1.1 4.1 6.322 6.322 0 0 1-2.864 2.145 12.931 12.931 0 0 1-5.179.829 10.948 10.948 0 0 1-4.345-.886 6.25 6.25 0 0 1-3.727-4.85c-.044-.251-.053-.508-.077-.763-.014-.145.031-.211.2-.21 1.414.008 2.828.012 4.242 0 .326 0 .238.241.253.393a2.751 2.751 0 0 0 1.406 2.218 5.178 5.178 0 0 0 1.564.578 4.693 4.693 0 0 0 3.013-.368 2.42 2.42 0 0 0 1.266-1.239 1.7 1.7 0 0 0-.674-2.227 6.251 6.251 0 0 0-1.9-.843c-1.1-.3-2.208-.553-3.315-.817a18.284 18.284 0 0 1-3.421-1.083 4.432 4.432 0 0 1-2.426-2.429 5.075 5.075 0 0 1-.23-2.118 5.214 5.214 0 0 1 2.365-4.2 6.915 6.915 0 0 1 2.557-1.05 14.3 14.3 0 0 1 3.826-.354 10.926 10.926 0 0 1 4.055.8 5.749 5.749 0 0 1 3.427 4.347c.064.326.113.654.179.979.039.192-.022.26-.219.258-.715-.008-1.431 0-2.146 0" transform="translate(-140.849 -16.496)" style="fill:#fff"/>
        <path data-name="패스 3794" d="M15.848 3.962c-.13.1-.226.166-.313.243A9.158 9.158 0 0 1 13.024 5.8a5.252 5.252 0 0 1-3.861.1c-.582-.2-.574-.2-.8.348a3.242 3.242 0 0 1-1.915 1.9 7.947 7.947 0 0 1-3.218.572A5.35 5.35 0 0 1 .141 7.594.4.4 0 0 1 0 7.362l.225.056a2.677 2.677 0 0 0 2.219-.182 7.929 7.929 0 0 0 .915-.736c.293-.259.565-.542.849-.814a3.057 3.057 0 0 1 3.57-.507l.276.127A4.488 4.488 0 0 1 10.6.587a4.547 4.547 0 0 1 4.628.1h-.517a6.334 6.334 0 0 0-4.768 2.3 6.826 6.826 0 0 0-1.18 1.987c-.158.4-.106.473.312.534a5.7 5.7 0 0 0 4.51-1.253 30.556 30.556 0 0 1 1.761-1.268 4.861 4.861 0 0 1 2.154-.94 1.049 1.049 0 0 1 1.129.41.94.94 0 0 1 .117.279c.04.166-.019.252-.209.254a7.056 7.056 0 0 0-1.016.057c-.387.062-.368.1-.305.473a9.8 9.8 0 0 1 .137 3 8.366 8.366 0 0 1-2.637 5.028 1.542 1.542 0 0 0-.158.21l.035.058c.263-.055.527-.106.788-.166a20.018 20.018 0 0 0 6.072-2.387A13.169 13.169 0 0 0 26.777 3.1c.211-.491.359-1.009.544-1.512.064-.175 0-.236-.167-.24-.2 0-.408-.022-.612-.022-2.964 0-5.928.014-8.892.005a2.573 2.573 0 0 1-.781-.2A4.228 4.228 0 0 1 16 .729h15.621c-.168.342-.309.682-.5 1a21.4 21.4 0 0 1-2.668 3.641 22.093 22.093 0 0 1-5.39 4.3 46.813 46.813 0 0 1-7.288 3.1c-1.128.4-2.258.8-3.371 1.241a4.742 4.742 0 0 0-2.005 1.41 2.737 2.737 0 0 0-.379 3.123 7.883 7.883 0 0 0 1.932 2.422c1.087.969 2.208 1.9 3.322 2.836a14.588 14.588 0 0 1 4.666 6.73 11.809 11.809 0 0 1 .492 4.568c-.026.359-.033.356-.393.354q-2.019-.01-4.037-.017c-.091 0-.181.012-.314.02.155-.307.3-.583.436-.863a7.775 7.775 0 0 0 .89-3.248 6.3 6.3 0 0 0-1.702-4.446c-1.365-1.533-2.766-3.034-4.139-4.56a12.15 12.15 0 0 1-2.405-3.682 4.541 4.541 0 0 1 1.107-5.294 13.956 13.956 0 0 1 2.544-1.872 23.455 23.455 0 0 0 1.6-1.09 4.826 4.826 0 0 0 1.794-2.8 8.578 8.578 0 0 0 .094-3.419 2 2 0 0 0-.063-.221" style="fill:#fff"/>
        <path data-name="패스 3795" d="M75.739 42.125v-9.462c0-.337 0-.334.328-.333h2.811c.345 0 .338 0 .338.341v5.959c0 .588 0 .58.58.572.2 0 .239-.08.236-.26-.01-.708-.009-1.415-.009-2.123 0-1.406.005-2.813 0-4.219 0-.224.06-.284.288-.28.954.016 1.908.015 2.862 0 .235 0 .3.06.3.3-.011 2.514-.007 5.029-.007 7.544v11.15c0 .592.006.594-.582.595-.869 0-1.738-.006-2.606.006-.212 0-.257-.072-.256-.264q.01-4.565.011-9.129c0-.379 0-.381-.384-.383-.435 0-.432 0-.432.429V51.364c.005.545.005.545-.559.545-.869 0-1.738-.008-2.606.007-.245 0-.315-.06-.315-.31q.012-4.744.005-9.487z" transform="translate(-38.88 -16.593)" style="fill:#fff"/>
        <path data-name="패스 3796" d="M115.384 43.891c-.105 0-.188.012-.271.012-4.344 0-8.688.013-13.032-.009a3.259 3.259 0 0 1-2.733-1.3 2.375 2.375 0 0 1-.493-1.45c-.008-2.711 0-5.422-.005-8.133 0-.149 0-.254.213-.252 1.048.011 2.1 0 3.143.005.05 0 .1.008.177.015.008.13.025.255.023.38-.006.708-.017 1.415-.025 2.123 0 .3.032.34.336.34q4.42 0 8.841.006c.248 0 .326-.1.322-.336-.012-.75 0-1.5-.015-2.25 0-.206.049-.284.27-.282 1 .011 1.993.007 2.989 0 .185 0 .274.036.273.254q-.007 5.332 0 10.664c0 .059-.006.118-.011.212m-13-5.3v1.969c0 .405 0 .414.4.413l5.722-.006h2.938c.425 0 .429-.014.43-.431 0-.554-.014-1.108.006-1.662.009-.257-.09-.321-.324-.321q-4.368.008-8.736.006c-.135 0-.27.02-.438.034" transform="translate(-50.749 -16.818)" style="fill:#fff"/>
        <path data-name="패스 3797" d="M380.633 42.847c-1.047 0-2.1.062-3.141-.013a5 5 0 0 1-4.537-3.006 6.768 6.768 0 0 1-.405-1.783 6.941 6.941 0 0 1 .522-3.868 4.457 4.457 0 0 1 2.844-2.427 7.912 7.912 0 0 1 2.442-.341q2.3-.031 4.6 0a7.2 7.2 0 0 1 3.057.6 4.435 4.435 0 0 1 2.48 2.948 8.718 8.718 0 0 1 .187 3.517 5.111 5.111 0 0 1-1.253 2.77 5.026 5.026 0 0 1-2.5 1.4 8.514 8.514 0 0 1-2.251.231c-.681.016-1.362 0-2.044 0v-.032m.015-2.9c.8 0 1.6.019 2.4-.006a2.216 2.216 0 0 0 1.8-.963 3.22 3.22 0 0 0 .5-2.016 2.469 2.469 0 0 0-2.439-2.641 60.669 60.669 0 0 0-4.594.007 2.293 2.293 0 0 0-2.006 1.173 3.285 3.285 0 0 0-.373 2.147 2.407 2.407 0 0 0 2.442 2.3c.757.006 1.515 0 2.272 0" transform="translate(-191.225 -16.118)" style="fill:#fff"/>
        <path data-name="패스 3798" d="M429.921 32.175c0 .087.012.161.012.236 0 .767-.007 1.534.007 2.3 0 .231-.074.291-.294.287-.57-.012-1.142.006-1.712 0-.233 0-.336.062-.335.313 0 .869-.009 1.739-.025 2.608 0 .219.11.252.288.25.638-.005 1.277 0 1.916-.005h.2c.006.115.017.214.017.311 0 .75-.009 1.5.009 2.25.006.231-.056.284-.281.283Q421.995 41 414.266 41h-.609v-2.831c.057 0 .121-.014.185-.014.622 0 1.244 0 1.865.009.218 0 .3-.073.295-.3-.024-.86-.04-1.721-.043-2.582 0-.231-.088-.287-.3-.283-.638.011-1.276 0-1.942 0v-2.83zM419.4 35a.41.41 0 0 0-.036.089v2.836c0 .214.128.244.3.243h4.238c.229 0 .316-.089.314-.319-.006-.852-.006-1.7.008-2.555 0-.223-.06-.294-.287-.292-1.165.006-2.332 0-3.5-.006H419.4" transform="translate(-212.37 -16.518)" style="fill:#fff"/>
        <path data-name="패스 3799" d="M56.451 32.554h8.238c.232 0 .3.055.3.3q-.026 1.15 0 2.3c.006.245-.078.309-.3.308-1.431-.006-2.861 0-4.291-.005-.423 0-.418 0-.418.423q0 6.314-.007 12.63c0 .626 0 .625.609.625h4.087c.211 0 .283.06.281.272-.007.81 0 1.619 0 2.429 0 .156-.055.21-.208.21-1.831 0-3.665.063-5.491-.023a2.883 2.883 0 0 1-2.825-2.946q.008-8.092.007-16.183c0-.1.012-.2.019-.327" transform="translate(-28.968 -16.711)" style="fill:#fff"/>
        <path data-name="패스 3800" d="M104.342 59.064c.094-.007.159-.017.225-.017h3.014c.2 0 .265.049.262.257-.011 1.065 0 2.13-.006 3.2 0 .314.027.343.353.343q3.435 0 6.87-.006c.179 0 .246.055.245.228 0 .826 0 1.653-.015 2.479 0 .06-.11.161-.179.17a4.309 4.309 0 0 1-.561.01H97.285c-.371 0-.364 0-.365-.379 0-.758 0-1.516-.021-2.274-.007-.25.139-.228.3-.228h4.853c.664 0 1.328-.009 1.992 0 .236 0 .311-.085.309-.315-.009-1.065-.005-2.13-.006-3.2v-.261" transform="translate(-49.747 -30.312)" style="fill:#fff"/>
        <path data-name="패스 3801" d="M377.758 58.433h3.47v.285c0 1.039.008 2.079 0 3.119 0 .241.081.324.33.324 2.222-.008 4.445 0 6.667 0 .349 0 .343 0 .341.345q-.005 1.061 0 2.122c0 .348.01.349-.345.348h-11.9c-1.865 0-3.729 0-5.595.01-.229 0-.288-.066-.284-.291.014-.758.015-1.517 0-2.275 0-.219.081-.262.265-.26h6.667c.383 0 .383 0 .383-.392v-3.335z" transform="translate(-190.184 -29.999)" style="fill:#fff"/>
        <path data-name="패스 3802" d="M413.731 59.44h3.412v2.697c0 .375.109.485.49.486h12.009c.337 0 .336 0 .335.332v2.2c0 .338 0 .338-.333.338H417.97c-.86 0-1.72.01-2.58 0-1.046-.016-1.561-.467-1.6-1.507-.055-1.353-.039-2.708-.054-4.063v-.476" transform="translate(-212.408 -30.516)" style="fill:#fff"/>
        <path data-name="패스 3803" d="M411.581 51.85c.129-.012.254-.034.379-.034h17.243c.663 0 .574-.081.575.592s0 1.328-.006 1.993v.329h-18.191z" transform="translate(-211.304 -26.6)" style="fill:#fff"/>
    </g>
</svg>
