<svg xmlns="http://www.w3.org/2000/svg" width="276" height="86" viewBox="0 0 276 86">
    <defs>
        <clipPath id="bqn67ufaea">
            <path data-name="사각형 4483" style="fill:none" d="M0 0h276v86H0z"/>
        </clipPath>
    </defs>
    <g data-name="그룹 1">
        <g data-name="그룹 13377" style="clip-path:url(#bqn67ufaea)">
            <path data-name="패스 3700" d="M0 17.517h28.2v2.97a1.984 1.984 0 0 1-.4 1.41 2.208 2.208 0 0 1-1.5.4h-9.059v3.981a2.185 2.185 0 0 1-.4 1.439 2.393 2.393 0 0 1-1.5.367h-4.348v-5.789H0zm26.52-9.34a6.964 6.964 0 0 1-.765 3.246A7.009 7.009 0 0 1 23.4 13.9a11.93 11.93 0 0 1-3.893 1.6 22.958 22.958 0 0 1-5.513.582A23.064 23.064 0 0 1 8.33 15.5a10.623 10.623 0 0 1-3.8-1.593 5.914 5.914 0 0 1-2.113-2.51 7.3 7.3 0 0 1-.674-3.216 8.1 8.1 0 0 1 .674-3.37 6.461 6.461 0 0 1 2.115-2.576A11.192 11.192 0 0 1 8.33.581 24.614 24.614 0 0 1 13.995 0a24.576 24.576 0 0 1 5.513.581A13.394 13.394 0 0 1 23.4 2.2a7.79 7.79 0 0 1 2.358 2.572 7.91 7.91 0 0 1 .765 3.4m-6.216 0a2.964 2.964 0 0 0-.49-1.684A3.841 3.841 0 0 0 18.5 5.42a9.009 9.009 0 0 0-1.994-.52 20.86 20.86 0 0 0-2.45-.152c-.858 0-1.624.059-2.358.121a7.913 7.913 0 0 0-1.96.521A3.447 3.447 0 0 0 8.39 6.461a2.838 2.838 0 0 0-.49 1.715 2.226 2.226 0 0 0 .49 1.562 2.771 2.771 0 0 0 1.348.948 5.921 5.921 0 0 0 1.96.491 19 19 0 0 0 2.358.122 15.961 15.961 0 0 0 2.45-.153 6.541 6.541 0 0 0 1.991-.49 3 3 0 0 0 1.317-.95 2.354 2.354 0 0 0 .49-1.531" style="fill:#fff"/>
            <path data-name="패스 3701" d="M30.092 20.957a1.208 1.208 0 0 0 .307.979 1.236 1.236 0 0 0 .888.277 17.714 17.714 0 0 0 2.817-.246c1.1-.153 2.236-.367 3.46-.643a41.224 41.224 0 0 0 3.615-.919 29.884 29.884 0 0 0 3.186-1.012V.346h6.245v24.96a2.185 2.185 0 0 1-.4 1.439 2.4 2.4 0 0 1-1.5.367h-4.346v-2.939a60.467 60.467 0 0 1-7.871 2.143 50.133 50.133 0 0 1-9.126.8 3.721 3.721 0 0 1-2.634-.827 3.419 3.419 0 0 1-.888-2.665V11h10.412V5.123H23.845V.346H40.5V15.78H30.092z" transform="translate(5.642 .082)" style="fill:#fff"/>
            <path data-name="패스 3702" d="M53.926 25.581a60.569 60.569 0 0 0 2.787-9.371 71.008 71.008 0 0 0 1.316-9.923 1.1 1.1 0 0 0-.245-.948 2.1 2.1 0 0 0-.979-.215h-9.188V.346h12.8a4.381 4.381 0 0 1 3.032.827 3.933 3.933 0 0 1 .826 2.786 63.633 63.633 0 0 1-1.04 11.331 80.928 80.928 0 0 1-2.848 10.965 1.913 1.913 0 0 1-.8 1.01 2.023 2.023 0 0 1-1.562-.092zM66.3 27.112V.346h6.247V10.36H76.4v2.97a1.98 1.98 0 0 1-.4 1.41 2.2 2.2 0 0 1-1.5.4h-1.96v10.166a2.185 2.185 0 0 1-.4 1.439 2.4 2.4 0 0 1-1.5.367z" transform="translate(11.267 .082)" style="fill:#fff"/>
            <path data-name="패스 3703" d="M71.315 13.363h10.963v-2.91h6.249v2.91H99.52v2.693a1.981 1.981 0 0 1-.4 1.41 2.208 2.208 0 0 1-1.5.4H71.315zM72.785.346h25.264v2.818a1.987 1.987 0 0 1-.4 1.408 2.2 2.2 0 0 1-1.5.4H91.5a12.289 12.289 0 0 0 2.848 1.5 15.976 15.976 0 0 0 4.042 1.1v4.808a21.866 21.866 0 0 1-4.165-.735 17.563 17.563 0 0 1-3.644-1.317 13.58 13.58 0 0 1-3-1.746 9.866 9.866 0 0 1-2.144-2.052 10.414 10.414 0 0 1-2.117 2.054 14.92 14.92 0 0 1-2.972 1.746 19.7 19.7 0 0 1-3.643 1.317 23.123 23.123 0 0 1-4.2.735V7.574a17.535 17.535 0 0 0 4.042-1.1 13.732 13.732 0 0 0 2.848-1.5h-6.61zM73 18.966h24.835V26.5a2.185 2.185 0 0 1-.4 1.439 2.4 2.4 0 0 1-1.5.367h-4.347v-4.562H73z" transform="translate(16.874 .082)" style="fill:#fff"/>
            <path data-name="패스 3704" d="M94.566 22.394H114.6v2.97a2.185 2.185 0 0 1-.4 1.439 2.4 2.4 0 0 1-1.5.367H94.566zm19.447-12.648a11.266 11.266 0 0 1-.521 3.338 9.175 9.175 0 0 1-1.684 3.032 8.6 8.6 0 0 1-2.97 2.174 10.344 10.344 0 0 1-4.441.858 10.445 10.445 0 0 1-4.563-.858 7.255 7.255 0 0 1-2.88-2.174 7.477 7.477 0 0 1-1.53-3.032 12.5 12.5 0 0 1-.46-3.338 13.431 13.431 0 0 1 .46-3.461 7.919 7.919 0 0 1 1.53-3.093 7.66 7.66 0 0 1 2.88-2.236 12.235 12.235 0 0 1 9 0 9.531 9.531 0 0 1 2.97 2.2 9.778 9.778 0 0 1 1.684 3.094 12.446 12.446 0 0 1 .521 3.491m-6.156 0a6.088 6.088 0 0 0-.919-3.736 3.189 3.189 0 0 0-2.512-1.134 3.021 3.021 0 0 0-2.448 1.134 6.02 6.02 0 0 0-.92 3.736 5.334 5.334 0 0 0 .92 3.522 3 3 0 0 0 2.448 1.1 3.163 3.163 0 0 0 2.512-1.1 5.454 5.454 0 0 0 .919-3.522m7.964 17.425V.4h6.246v24.96a2.192 2.192 0 0 1-.4 1.439 2.4 2.4 0 0 1-1.5.367z" transform="translate(22.375 .023)" style="fill:#fff"/>
            <path data-name="패스 3705" d="M2.431 30.819h7.354v-3.93h11.452v3.93h7.523V35.7a3.629 3.629 0 0 1-.73 2.582 4.042 4.042 0 0 1-2.75.73H2.431zm10.049 26.5a18.691 18.691 0 0 1-3.648-.338A7.35 7.35 0 0 1 5.8 55.743a5.772 5.772 0 0 1-2.132-2.471 8.245 8.245 0 0 1-.786-3.986 8.69 8.69 0 0 1 .786-3.986 6.976 6.976 0 0 1 2.076-2.526 9.421 9.421 0 0 1 3.031-1.4 18.716 18.716 0 0 1 3.7-.393h6.287a19.578 19.578 0 0 1 3.649.393 11.024 11.024 0 0 1 3.088 1.4A8.326 8.326 0 0 1 27.58 45.3a9.5 9.5 0 0 1 .786 3.984 8.967 8.967 0 0 1-.786 3.986 6.511 6.511 0 0 1-2.08 2.473 8.04 8.04 0 0 1-3.031 1.234 20.638 20.638 0 0 1-3.706.338zm5.951 21.95a45.435 45.435 0 0 1-4.883-.282 11.716 11.716 0 0 1-4.155-1.347 7.311 7.311 0 0 1-2.918-2.92 10.224 10.224 0 0 1-1.066-5.052 9.913 9.913 0 0 1 1.066-4.94 7.666 7.666 0 0 1 2.863-2.975 12.971 12.971 0 0 1 4.152-1.463 32.123 32.123 0 0 1 4.772-.393h22.061a35.131 35.131 0 0 1 4.94.393 13.457 13.457 0 0 1 4.154 1.459 9.258 9.258 0 0 1 2.864 3.032 10.566 10.566 0 0 1 1.066 4.939 10.9 10.9 0 0 1-1.066 5.053 8.387 8.387 0 0 1-2.92 2.863 12.5 12.5 0 0 1-4.155 1.347 45.235 45.235 0 0 1-4.828.282zm-1.235-28.63a1.248 1.248 0 0 0 1.4-1.4c0-1.01-.5-1.572-1.4-1.572H13.94a1.258 1.258 0 0 0-.955.392 1.585 1.585 0 0 0-.393 1.18 1.2 1.2 0 0 0 .393 1.01 1.156 1.156 0 0 0 .955.393zm22.566 20.653c1.46 0 2.189-.618 2.189-1.74a1.685 1.685 0 0 0-.56-1.348 3.493 3.493 0 0 0-1.629-.392H19.16a3.487 3.487 0 0 0-1.627.392 1.472 1.472 0 0 0-.674 1.348 1.378 1.378 0 0 0 .617 1.347 3.084 3.084 0 0 0 1.684.393zm2.807-13.584V46.536h-1.8v7.859a3.629 3.629 0 0 1-.73 2.582 4.033 4.033 0 0 1-2.75.731H30.5v-29.7h10.272V38.34h1.8V28.011h10.269v26.384a3.629 3.629 0 0 1-.73 2.582 4.033 4.033 0 0 1-2.75.731z" transform="translate(.575 6.362)" style="fill:#fff"/>
            <path data-name="패스 3706" d="M83.852 48.174c-.955.113-1.908.169-2.807.225-.955.113-1.908.224-2.807.281v2.975h20.153V56.6a3.631 3.631 0 0 1-.73 2.582 4.04 4.04 0 0 1-2.75.728h-48.22v-8.255h20.1V49.3c-1.627.056-3.256.056-4.885.056-1.683.057-3.367.057-5.052.057-2.695 0-4.49-.506-5.5-1.572-1.066-1.01-1.572-2.695-1.572-5.052V27.8H61.23v3.48h22.622V27.8H95.3v18.3a3.627 3.627 0 0 1-.731 2.583 4.033 4.033 0 0 1-2.75.73h-7.967zM49.778 61.927H95.3v13.81a4 4 0 0 1-.731 2.639 4.393 4.393 0 0 1-2.75.674h-7.967v-8.366H49.778zM62.8 42h4.266c1.684 0 3.424 0 5.332-.113 1.852 0 3.762-.113 5.782-.224a59.666 59.666 0 0 0 5.67-.45v-2.582H61.23v1.908q0 .927.336 1.178c.168.225.561.282 1.235.282" transform="translate(11.047 6.577)" style="fill:#fff"/>
            <path data-name="패스 3707" d="M121.709 27.454h-31.13v51.883h31.13a25.942 25.942 0 0 0 0-51.883m13.1 28.4-18.041 18.038-18.045-18.043a11.341 11.341 0 0 1 16.039-16.039l2.006 2 2-2a11.342 11.342 0 0 1 16.04 16.039" transform="translate(21.432 6.496)" style="fill:#fff"/>
            <path data-name="패스 3708" d="M165.028 27.9v5.446a3.632 3.632 0 0 1-.73 2.582 4.035 4.035 0 0 1-2.751.73h-9.879v29.02a2.226 2.226 0 0 0 .561 1.8 2.262 2.262 0 0 0 1.629.5 23.761 23.761 0 0 0 6.287-1.01 40.375 40.375 0 0 0 7.129-2.582v-8.981h-7.41v-8.758h7.41V27.9h10.273v45.749a4.006 4.006 0 0 1-.73 2.639 4.394 4.394 0 0 1-2.751.674h-6.791v-4.379a43.354 43.354 0 0 1-9.936 3.369 54.561 54.561 0 0 1-10.666 1.01 6.822 6.822 0 0 1-4.828-1.516c-1.123-1.01-1.629-2.638-1.629-4.885V27.9zm14.258 49.064V27.9h10.274v45.749a4.006 4.006 0 0 1-.73 2.639 4.4 4.4 0 0 1-2.751.674z" transform="translate(33.176 6.601)" style="fill:#fff"/>
            <path data-name="패스 3709" d="M214.955 52.371a73.472 73.472 0 0 1-.728 10.666 23.213 23.213 0 0 1-2.526 7.8 12.552 12.552 0 0 1-4.885 4.66 18.131 18.131 0 0 1-7.859 1.572 17.881 17.881 0 0 1-8.027-1.569 11.237 11.237 0 0 1-4.772-4.66 21 21 0 0 1-2.246-7.8 74.843 74.843 0 0 1-.617-10.666 75.382 75.382 0 0 1 .617-10.666 21.678 21.678 0 0 1 2.246-7.746 11.7 11.7 0 0 1 4.772-4.716 17.9 17.9 0 0 1 8.027-1.57 18.15 18.15 0 0 1 7.859 1.57A12.555 12.555 0 0 1 211.7 33.9a24.174 24.174 0 0 1 2.526 7.746 75.489 75.489 0 0 1 .728 10.721m-11.451 0c0-3.424-.113-6.174-.281-8.308a28.592 28.592 0 0 0-.841-4.828 4.437 4.437 0 0 0-1.4-2.246 3.821 3.821 0 0 0-1.965-.561 3.255 3.255 0 0 0-1.852.506 4.044 4.044 0 0 0-1.348 2.244 20.52 20.52 0 0 0-.842 4.829c-.224 2.132-.281 4.883-.281 8.363s.057 6.287.281 8.364a19.942 19.942 0 0 0 .842 4.828 3.679 3.679 0 0 0 1.348 2.19 2.912 2.912 0 0 0 1.852.561 3.368 3.368 0 0 0 1.965-.561 4.2 4.2 0 0 0 1.4-2.247 27.55 27.55 0 0 0 .841-4.826c.168-2.078.281-4.828.281-8.309m18.02 24.644V27.951h11.452V73.7a4.006 4.006 0 0 1-.731 2.639 4.39 4.39 0 0 1-2.75.674z" transform="translate(43.369 6.547)" style="fill:#fff"/>
        </g>
    </g>
</svg>
