<svg xmlns="http://www.w3.org/2000/svg" width="276.903" height="86" viewBox="0 0 276.903 86">
    <path data-name="패스 8134" d="M105.765 378.869h28.26v2.976a1.984 1.984 0 0 1-.4 1.412 2.211 2.211 0 0 1-1.5.4h-9.085v3.988a2.186 2.186 0 0 1-.4 1.442 2.4 2.4 0 0 1-1.5.368h-4.357v-5.8h-11.018zm26.572-9.358a6.483 6.483 0 0 1-3.13 5.737 11.937 11.937 0 0 1-3.9 1.6 27.181 27.181 0 0 1-11.2 0 10.64 10.64 0 0 1-3.8-1.6 5.915 5.915 0 0 1-2.117-2.516 7.3 7.3 0 0 1-.675-3.222 8.088 8.088 0 0 1 .675-3.376 6.461 6.461 0 0 1 2.117-2.578 11.192 11.192 0 0 1 3.8-1.656 27.149 27.149 0 0 1 11.2 0 13.388 13.388 0 0 1 3.9 1.626 7.783 7.783 0 0 1 2.362 2.578 7.908 7.908 0 0 1 .768 3.407zm-6.228 0a2.966 2.966 0 0 0-.492-1.688 3.821 3.821 0 0 0-1.319-1.073 9.016 9.016 0 0 0-1.995-.523 21.23 21.23 0 0 0-2.454-.152c-.859 0-1.626.06-2.362.122a7.913 7.913 0 0 0-1.964.522 3.444 3.444 0 0 0-1.35 1.075 2.84 2.84 0 0 0-.491 1.718 2.225 2.225 0 0 0 .491 1.564 2.775 2.775 0 0 0 1.35.952 5.961 5.961 0 0 0 1.964.491 18.939 18.939 0 0 0 2.362.124 16.028 16.028 0 0 0 2.454-.154A6.571 6.571 0 0 0 124.3 372a3 3 0 0 0 1.319-.952 2.356 2.356 0 0 0 .49-1.537z" style="fill:#fff" transform="translate(-105.765 -361.318)"/>
    <path data-name="패스 8135" d="M153.072 382.565a1.215 1.215 0 0 0 .307.982 1.241 1.241 0 0 0 .89.277 17.789 17.789 0 0 0 2.823-.246c1.1-.153 2.239-.368 3.467-.644a41.34 41.34 0 0 0 3.62-.921 29.819 29.819 0 0 0 3.192-1.013v-19.085h6.259v25.008a2.189 2.189 0 0 1-.4 1.442 2.4 2.4 0 0 1-1.5.368h-4.357v-2.945a60.482 60.482 0 0 1-7.886 2.148 50.209 50.209 0 0 1-9.144.8 3.722 3.722 0 0 1-2.639-.829 3.421 3.421 0 0 1-.89-2.669v-12.645h10.433V366.7h-10.435v-4.787H163.5v15.467h-10.428z" transform="translate(-117.267 -361.485)" style="fill:#fff"/>
    <path data-name="패스 8136" d="M194.054 387.2a60.591 60.591 0 0 0 2.793-9.39 71.206 71.206 0 0 0 1.319-9.941 1.112 1.112 0 0 0-.245-.951 2.108 2.108 0 0 0-.983-.216h-9.205v-4.787h12.826a4.382 4.382 0 0 1 3.037.829 3.938 3.938 0 0 1 .828 2.791 63.774 63.774 0 0 1-1.043 11.353 81.2 81.2 0 0 1-2.854 10.985 1.923 1.923 0 0 1-.8 1.013 2.021 2.021 0 0 1-1.564-.091zm12.4 1.535v-26.82h6.259v10.033h3.867v2.977a1.986 1.986 0 0 1-.4 1.412 2.208 2.208 0 0 1-1.5.4h-1.97v10.187a2.189 2.189 0 0 1-.4 1.442 2.4 2.4 0 0 1-1.5.368z" transform="translate(-128.734 -361.485)" style="fill:#fff"/>
    <path data-name="패스 8137" d="M228.525 374.956h10.985v-2.914h6.26v2.914h11.016v2.7a1.986 1.986 0 0 1-.4 1.412 2.213 2.213 0 0 1-1.5.4h-26.361zM230 361.915h25.314v2.823a1.994 1.994 0 0 1-.4 1.412 2.214 2.214 0 0 1-1.5.4h-4.664a12.335 12.335 0 0 0 2.854 1.5 16.015 16.015 0 0 0 4.05 1.1v4.817a21.853 21.853 0 0 1-4.173-.736 17.569 17.569 0 0 1-3.651-1.32 13.584 13.584 0 0 1-3.007-1.748 9.913 9.913 0 0 1-2.149-2.056 10.432 10.432 0 0 1-2.117 2.056 14.87 14.87 0 0 1-2.976 1.748 19.736 19.736 0 0 1-3.651 1.32 23.077 23.077 0 0 1-4.2.736v-4.817a17.591 17.591 0 0 0 4.05-1.1 13.753 13.753 0 0 0 2.854-1.5H230zm.215 18.655H255.1v7.55a2.186 2.186 0 0 1-.4 1.442 2.4 2.4 0 0 1-1.5.368h-4.357v-4.571h-18.63z" transform="translate(-140.165 -361.485)" style="fill:#fff"/>
    <path data-name="패스 8138" d="M268.55 383.827h20.069v2.973a2.189 2.189 0 0 1-.4 1.442 2.406 2.406 0 0 1-1.5.368H268.55zm19.485-12.672a11.349 11.349 0 0 1-.521 3.344 9.241 9.241 0 0 1-1.688 3.037 8.626 8.626 0 0 1-2.977 2.179 10.357 10.357 0 0 1-4.449.859 10.469 10.469 0 0 1-4.572-.859 7.278 7.278 0 0 1-2.885-2.179 7.5 7.5 0 0 1-1.533-3.037 12.527 12.527 0 0 1-.461-3.344 13.446 13.446 0 0 1 .461-3.468 7.942 7.942 0 0 1 1.533-3.1 7.689 7.689 0 0 1 2.885-2.241 12.264 12.264 0 0 1 9.021 0 9.57 9.57 0 0 1 2.977 2.209 9.868 9.868 0 0 1 1.688 3.1 12.542 12.542 0 0 1 .521 3.5zm-6.169 0a6.1 6.1 0 0 0-.919-3.744 3.2 3.2 0 0 0-2.517-1.137 3.032 3.032 0 0 0-2.455 1.137 6.044 6.044 0 0 0-.919 3.744 5.351 5.351 0 0 0 .919 3.528 3.007 3.007 0 0 0 2.455 1.1 3.172 3.172 0 0 0 2.517-1.1 5.466 5.466 0 0 0 .92-3.528zm7.979 17.459V361.8h6.26v25a2.194 2.194 0 0 1-.4 1.442 2.406 2.406 0 0 1-1.5.368z" transform="translate(-151.381 -361.365)" style="fill:#fff"/>
    <path data-name="사각형 4748" transform="translate(153.063 8.798)" style="fill:#fff" d="M0 0h123.84v4.934H0z"/>
    <path data-name="패스 8141" d="M292.876 408.576h-31.19v51.985h31.19a25.992 25.992 0 0 0 25.993-25.992 25.993 25.993 0 0 0-25.993-25.993zm8.961 28.171-13.91 14.946-13.91-14.946a9.9 9.9 0 0 1 0-13.286 8.323 8.323 0 0 1 12.365 0l1.545 1.661 1.545-1.661a8.323 8.323 0 0 1 12.365 0 9.894 9.894 0 0 1 0 13.286z" transform="translate(-149.457 -374.561)" style="fill:#fff"/>
    <path data-name="패스 8139" d="M109.95 411.543h7.368v-3.937h11.474v3.937h7.538v4.893a3.632 3.632 0 0 1-.732 2.587 4.044 4.044 0 0 1-2.755.731H109.95zm10.068 26.547a18.763 18.763 0 0 1-3.656-.338 7.38 7.38 0 0 1-3.037-1.237 5.788 5.788 0 0 1-2.137-2.475 8.277 8.277 0 0 1-.787-3.993 8.718 8.718 0 0 1 .787-3.993 7 7 0 0 1 2.081-2.531 9.437 9.437 0 0 1 3.037-1.406 18.752 18.752 0 0 1 3.712-.394h6.3a19.636 19.636 0 0 1 3.656.394 11.047 11.047 0 0 1 3.094 1.406 8.368 8.368 0 0 1 2.081 2.531 9.515 9.515 0 0 1 .787 3.993 8.991 8.991 0 0 1-.787 3.993 6.536 6.536 0 0 1-2.081 2.475 8.069 8.069 0 0 1-3.037 1.237 20.682 20.682 0 0 1-3.712.338zm5.962 21.993a45.7 45.7 0 0 1-4.893-.282 11.716 11.716 0 0 1-4.162-1.35 7.323 7.323 0 0 1-2.925-2.925 10.243 10.243 0 0 1-1.068-5.061 9.931 9.931 0 0 1 1.068-4.95 7.689 7.689 0 0 1 2.868-2.981 13 13 0 0 1 4.162-1.462 32.188 32.188 0 0 1 4.78-.394h22.1a35.23 35.23 0 0 1 4.95.394 13.5 13.5 0 0 1 4.162 1.462 9.271 9.271 0 0 1 2.868 3.038 10.581 10.581 0 0 1 1.069 4.948 10.915 10.915 0 0 1-1.069 5.063 8.393 8.393 0 0 1-2.925 2.868 12.5 12.5 0 0 1-4.162 1.35 45.5 45.5 0 0 1-4.837.282zm-1.237-28.683a1.25 1.25 0 0 0 1.406-1.407c0-1.011-.505-1.574-1.406-1.574h-3.262a1.263 1.263 0 0 0-.957.393 1.588 1.588 0 0 0-.393 1.181 1.206 1.206 0 0 0 .393 1.013 1.158 1.158 0 0 0 .957.394zm22.61 20.7c1.463 0 2.193-.62 2.193-1.743a1.686 1.686 0 0 0-.561-1.35 3.489 3.489 0 0 0-1.632-.394h-20.641a3.484 3.484 0 0 0-1.631.394 1.473 1.473 0 0 0-.675 1.35 1.379 1.379 0 0 0 .619 1.349 3.087 3.087 0 0 0 1.687.394zm2.812-13.611v-11.198h-1.8v7.874a3.636 3.636 0 0 1-.731 2.587 4.042 4.042 0 0 1-2.756.732h-6.806V408.73h10.293v10.35h1.8v-10.35h10.293v26.436a3.639 3.639 0 0 1-.731 2.587 4.045 4.045 0 0 1-2.757.732z" transform="translate(-106.938 -374.289)" style="fill:#fff"/>
    <path data-name="패스 8140" d="M223.372 429.584c-.956.113-1.912.17-2.811.225-.957.112-1.912.225-2.813.282v2.98h20.192v4.95a3.635 3.635 0 0 1-.731 2.587 4.046 4.046 0 0 1-2.756.731h-48.314v-8.268h20.136v-2.361c-1.631.055-3.263.055-4.894.055-1.688.057-3.375.057-5.062.057-2.7 0-4.5-.507-5.512-1.576-1.068-1.011-1.575-2.7-1.575-5.061v-15.018h11.474v3.487h22.667v-3.487h11.475V427.5a3.637 3.637 0 0 1-.732 2.588 4.048 4.048 0 0 1-2.755.731h-7.987zm-34.141 13.781h45.615V457.2a4.011 4.011 0 0 1-.732 2.644 4.4 4.4 0 0 1-2.755.675h-7.987v-8.382h-34.14zm13.05-19.965h4.275c1.688 0 3.431 0 5.343-.112 1.856 0 3.769-.112 5.794-.225a59.83 59.83 0 0 0 5.68-.45v-2.587h-22.667v1.912q0 .93.338 1.181c.168.222.562.281 1.237.281z" transform="translate(-128.287 -374.726)" style="fill:#fff"/>
    <path data-name="패스 8142" d="M371.989 409.342v5.458a3.64 3.64 0 0 1-.731 2.588 4.047 4.047 0 0 1-2.757.731h-9.9V447.2a2.23 2.23 0 0 0 .562 1.8 2.267 2.267 0 0 0 1.631.506 23.81 23.81 0 0 0 6.3-1.013 40.464 40.464 0 0 0 7.144-2.587v-9h-7.425v-8.775h7.425v-18.789h10.292v45.841a4.011 4.011 0 0 1-.731 2.644 4.4 4.4 0 0 1-2.756.675h-6.8v-4.388a43.419 43.419 0 0 1-9.956 3.375A54.674 54.674 0 0 1 353.6 458.5a6.843 6.843 0 0 1-4.838-1.519c-1.124-1.013-1.631-2.644-1.631-4.895v-42.744zm14.286 49.16v-49.16h10.293v45.841a4.015 4.015 0 0 1-.731 2.644 4.4 4.4 0 0 1-2.756.675z" transform="translate(-173.4 -374.775)" style="fill:#fff"/>
    <path data-name="패스 8143" d="M453.008 433.7a73.608 73.608 0 0 1-.731 10.687 23.233 23.233 0 0 1-2.531 7.817 12.575 12.575 0 0 1-4.893 4.669 18.183 18.183 0 0 1-7.874 1.574 17.935 17.935 0 0 1-8.043-1.574 11.262 11.262 0 0 1-4.781-4.669 21.053 21.053 0 0 1-2.25-7.817 92.669 92.669 0 0 1 0-21.373 21.737 21.737 0 0 1 2.25-7.762 11.727 11.727 0 0 1 4.781-4.725 17.935 17.935 0 0 1 8.043-1.574 18.184 18.184 0 0 1 7.874 1.574 12.577 12.577 0 0 1 4.893 4.67 24.194 24.194 0 0 1 2.531 7.761 75.609 75.609 0 0 1 .731 10.742zm-11.474 0c0-3.432-.112-6.187-.281-8.325a28.694 28.694 0 0 0-.844-4.836 4.444 4.444 0 0 0-1.409-2.251 3.837 3.837 0 0 0-1.969-.562 3.269 3.269 0 0 0-1.856.507 4.057 4.057 0 0 0-1.35 2.249 20.492 20.492 0 0 0-.843 4.838c-.225 2.136-.282 4.893-.282 8.38s.057 6.3.282 8.38a19.942 19.942 0 0 0 .843 4.837 3.684 3.684 0 0 0 1.35 2.194 2.918 2.918 0 0 0 1.856.563 3.374 3.374 0 0 0 1.969-.563 4.2 4.2 0 0 0 1.406-2.251 27.642 27.642 0 0 0 .844-4.836c.172-2.08.284-4.837.284-8.324zm18.056 24.692v-49.16h11.474v45.841a4.014 4.014 0 0 1-.732 2.644 4.4 4.4 0 0 1-2.755.675z" transform="translate(-194.181 -374.666)" style="fill:#fff"/>
</svg>
