<svg xmlns="http://www.w3.org/2000/svg" width="60" height="32" viewBox="0 0 60 32">
    <defs>
        <clipPath id="xy5y6x3yxa">
            <path data-name="사각형 1" transform="translate(790 1556)" style="fill:#fff;stroke:#707070" d="M0 0h60v32H0z"/>
        </clipPath>
        <clipPath id="ihrk6iwxzb">
            <path data-name="사각형 1112" style="fill:none" d="M0 0h60v31.417H0z"/>
        </clipPath>
    </defs>
    <g data-name="그룹 1" transform="translate(-790 -1556)" style="clip-path:url(#xy5y6x3yxa)">
        <path data-name="패스 2" d="M1.225 151.44v.743h1.24v3.5h.748v-3.5h1.24v-.743z" transform="translate(788.994 1431.65)" style="fill:#b61f24"/>
        <path data-name="패스 2" d="M26.116 151.44v1.731h-2.17v-1.731H23.2v4.246h.742v-1.774h2.17v1.774h.748v-4.246z" transform="translate(770.941 1431.65)" style="fill:#b61f24"/>
        <g data-name="그룹 1">
            <g data-name="그룹 12756" style="clip-path:url(#ihrk6iwxzb)" transform="translate(790 1556)">
                <path data-name="패스 2677" d="M52.056 151.438v.744h-2.128a.694.694 0 0 0-.492.145.515.515 0 0 0-.152.39q0 .5.649.5h2.092v.674h-2.11q-.649 0-.649.515a.5.5 0 0 0 .157.4.715.715 0 0 0 .485.141h2.155v.744h-2.155a2.072 2.072 0 0 1-.646-.089 1.234 1.234 0 0 1-.44-.241.907.907 0 0 1-.252-.368 1.3 1.3 0 0 1-.079-.461 1.1 1.1 0 0 1 .156-.606 1 1 0 0 1 .454-.37.935.935 0 0 1-.6-.957 1.268 1.268 0 0 1 .082-.465.922.922 0 0 1 .254-.368 1.173 1.173 0 0 1 .442-.24 2.13 2.13 0 0 1 .646-.086z" transform="translate(-39.818 -124.353)" style="fill:#b61f24"/>
                <path data-name="패스 2678" d="M81.837 155.322h-.792l1.316-3.541a1.4 1.4 0 0 1 .358-.576 1.118 1.118 0 0 1 1.363.043.955.955 0 0 1 .236.672v2.5a.252.252 0 0 0 .059.179.2.2 0 0 0 .154.066.236.236 0 0 0 .24-.179l1.032-2.715a1.429 1.429 0 0 1 .358-.576 1.114 1.114 0 0 1 1.361.043.955.955 0 0 1 .236.672v3.4h-.749v-3.355a.261.261 0 0 0-.059-.179.207.207 0 0 0-.156-.066.211.211 0 0 0-.141.052.316.316 0 0 0-.091.13l-1.044 2.715a1.381 1.381 0 0 1-.358.576 1.112 1.112 0 0 1-1.361-.045.962.962 0 0 1-.232-.676v-2.5a.254.254 0 0 0-.063-.179.215.215 0 0 0-.157-.066.209.209 0 0 0-.145.052.331.331 0 0 0-.089.131z" transform="translate(-66.55 -123.985)" style="fill:#b61f24"/>
                <path data-name="패스 2679" d="M125.788 151.44a1.858 1.858 0 0 1 1.431.537 2.278 2.278 0 0 1 .5 1.61 2.238 2.238 0 0 1-.5 1.594 1.893 1.893 0 0 1-1.431.524h-.588a1.88 1.88 0 0 1-1.431-.524 2.235 2.235 0 0 1-.5-1.594 2.3 2.3 0 0 1 .5-1.61 1.851 1.851 0 0 1 1.431-.537zm-.587.744a1.107 1.107 0 0 0-.894.327 1.684 1.684 0 0 0-.281 1.073 1.593 1.593 0 0 0 .277 1.052 1.125 1.125 0 0 0 .894.322h.579a1.126 1.126 0 0 0 .894-.326 1.577 1.577 0 0 0 .281-1.053 1.636 1.636 0 0 0-.277-1.059 1.11 1.11 0 0 0-.894-.327z" transform="translate(-101.228 -124.356)" style="fill:#b61f24"/>
                <path data-name="패스 2680" d="M153.625 155.364h-.744v-3.4a.95.95 0 0 1 .24-.672 1.184 1.184 0 0 1 1.408-.043 1.434 1.434 0 0 1 .358.576l1.239 2.715a.372.372 0 0 0 .1.127.269.269 0 0 0 .179.05.259.259 0 0 0 .179-.066.24.24 0 0 0 .066-.179v-3.362h.749v3.4a.936.936 0 0 1-.243.676.966.966 0 0 1-.733.256 1.278 1.278 0 0 1-.388-.054.842.842 0 0 1-.29-.157 1.015 1.015 0 0 1-.211-.249 1.622 1.622 0 0 1-.15-.327l-1.223-2.719a.275.275 0 0 0-.265-.179.267.267 0 0 0-.193.066.248.248 0 0 0-.064.179z" transform="translate(-125.538 -124.026)" style="fill:#b61f24"/>
                <path data-name="패스 2681" d="M195.7 151.389v.744h-2.18a.555.555 0 0 0-.422.141.515.515 0 0 0-.132.358.643.643 0 0 0 .029.179.409.409 0 0 0 .1.165.478.478 0 0 0 .191.113.934.934 0 0 0 .309.041h.994a1.947 1.947 0 0 1 .715.111 1.16 1.16 0 0 1 .438.286.944.944 0 0 1 .22.4 1.79 1.79 0 0 1 .061.452 1.564 1.564 0 0 1-.075.5 1.039 1.039 0 0 1-.24.4 1.128 1.128 0 0 1-.42.261 1.787 1.787 0 0 1-.619.095h-2.37v-.744h2.401a.593.593 0 0 0 .444-.148.526.526 0 0 0 .141-.381.625.625 0 0 0-.032-.2.4.4 0 0 0-.106-.17.554.554 0 0 0-.206-.116.987.987 0 0 0-.324-.045h-.991a1.922 1.922 0 0 1-.7-.107 1.071 1.071 0 0 1-.426-.283 1 1 0 0 1-.215-.4 1.7 1.7 0 0 1-.059-.442 1.588 1.588 0 0 1 .072-.488.975.975 0 0 1 .234-.386 1.075 1.075 0 0 1 .411-.256 1.79 1.79 0 0 1 .606-.091z" transform="translate(-157.846 -124.304)" style="fill:#b61f24"/>
                <path data-name="패스 2682" d="M220.206 151.438a1.647 1.647 0 0 1 .617.1 1.255 1.255 0 0 1 .426.277 1.077 1.077 0 0 1 .245.406 1.53 1.53 0 0 1 .079.486 1.7 1.7 0 0 1-.072.478 1.154 1.154 0 0 1-.238.429 1.226 1.226 0 0 1-.424.308 1.508 1.508 0 0 1-.633.12h-1.323a.1.1 0 0 0-.107.08.1.1 0 0 0 0 .027v1.538h-.744v-1.683a.715.715 0 0 1 .157-.517.7.7 0 0 1 .51-.157h1.531a.656.656 0 0 0 .27-.05.485.485 0 0 0 .179-.132.547.547 0 0 0 .106-.179.728.728 0 0 0 .034-.216.607.607 0 0 0-.141-.4.555.555 0 0 0-.445-.166h-2.2v-.744z" transform="translate(-179.035 -124.353)" style="fill:#b61f24"/>
                <path data-name="패스 2683" d="M243.609 151.44a1.861 1.861 0 0 1 1.431.537 2.845 2.845 0 0 1 0 3.2 1.889 1.889 0 0 1-1.431.524h-.579a1.879 1.879 0 0 1-1.431-.524 2.23 2.23 0 0 1-.494-1.594 2.306 2.306 0 0 1 .494-1.61 1.847 1.847 0 0 1 1.431-.537zm-.579.744a1.1 1.1 0 0 0-.894.327 1.685 1.685 0 0 0-.281 1.073 1.58 1.58 0 0 0 .277 1.052 1.122 1.122 0 0 0 .894.322h.579a1.121 1.121 0 0 0 .894-.326 1.587 1.587 0 0 0 .281-1.053 1.637 1.637 0 0 0-.277-1.059 1.11 1.11 0 0 0-.894-.327z" transform="translate(-197.984 -124.356)" style="fill:#b61f24"/>
                <path data-name="패스 2684" d="M272.921 151.438a1.654 1.654 0 0 1 .617.1 1.255 1.255 0 0 1 .426.277 1.077 1.077 0 0 1 .245.406 1.529 1.529 0 0 1 .079.486 1.6 1.6 0 0 1-.05.4 1.343 1.343 0 0 1-.157.372 1.181 1.181 0 0 1-.277.306 1.253 1.253 0 0 1-.417.2l.989 1.7h-.832l-.971-1.645h-1.107a.1.1 0 0 0-.107.08.1.1 0 0 0 0 .027v1.538h-.744v-1.683a.572.572 0 0 1 .667-.674h1.658a.65.65 0 0 0 .27-.05.471.471 0 0 0 .179-.132.546.546 0 0 0 .106-.19.765.765 0 0 0 .034-.22.58.58 0 0 0-.143-.393.554.554 0 0 0-.449-.166h-2.327v-.744z" transform="translate(-222.207 -124.354)" style="fill:#b61f24"/>
                <path data-name="패스 2685" d="M296.8 151.439v.744h-1.241v3.507h-.749v-3.507h-1.241v-.744z" transform="translate(-241.062 -124.355)" style="fill:#b61f24"/>
                <path data-name="패스 2686" d="M317.7 151.388v.744h-2.178a.551.551 0 0 0-.422.141.5.5 0 0 0-.132.358.6.6 0 0 0 .029.179.386.386 0 0 0 .1.165.491.491 0 0 0 .191.113.945.945 0 0 0 .309.041h.994a1.948 1.948 0 0 1 .715.111 1.146 1.146 0 0 1 .438.286.969.969 0 0 1 .222.4 1.787 1.787 0 0 1 .059.452 1.563 1.563 0 0 1-.075.5 1.016 1.016 0 0 1-.24.4 1.114 1.114 0 0 1-.42.261 1.787 1.787 0 0 1-.619.095H314.3v-.744h2.4a.591.591 0 0 0 .444-.148.526.526 0 0 0 .141-.381.674.674 0 0 0-.03-.2.417.417 0 0 0-.107-.17.527.527 0 0 0-.206-.116.978.978 0 0 0-.324-.045h-.991a1.921 1.921 0 0 1-.7-.107 1.082 1.082 0 0 1-.426-.283 1 1 0 0 1-.213-.4 1.623 1.623 0 0 1-.061-.442 1.587 1.587 0 0 1 .072-.488 1 1 0 0 1 .234-.386 1.091 1.091 0 0 1 .413-.256 1.767 1.767 0 0 1 .6-.091z" transform="translate(-258.027 -124.304)" style="fill:#b61f24"/>
                <path data-name="패스 2687" d="M186.666 21.612a2.792 2.792 0 0 1-1.992-.839c-1.4-1.4-2.811-2.851-4.178-4.251-2.99-3.067-6.081-6.238-9.264-9.121a5.664 5.664 0 0 0-4.038-1.839 5.544 5.544 0 0 0-4.471 2.288 2.785 2.785 0 1 1-4.572-3.18l.063-.087A11.138 11.138 0 0 1 167.2 0a11.331 11.331 0 0 1 7.774 3.278c3.094 2.8 6.052 5.809 8.914 8.744V3.36a2.785 2.785 0 0 1 5.567 0v15.471a2.788 2.788 0 0 1-2.783 2.785" transform="translate(-129.456 .001)" style="fill:#b61f24"/>
                <path data-name="패스 2688" d="M37.744 24.836c-4.764 0-7.869-3.2-10.373-5.773-.3-.308-.6-.613-.894-.912l-5.437-5.425v8.751a2.785 2.785 0 0 1-4.757 1.967L5.568 12.728v8.749A2.785 2.785 0 0 1 0 21.618V6.005a2.783 2.783 0 0 1 4.753-1.967l10.716 10.717v-8.75a2.781 2.781 0 0 1 4.75-1.967L30.4 14.214c.315.317.631.64.948.968 2.134 2.192 3.976 4.087 6.388 4.087a5.544 5.544 0 0 0 4.546-2.382 2.789 2.789 0 0 1 4.586 3.175 11.108 11.108 0 0 1-9.121 4.775" transform="translate(0 -2.645)" style="fill:#b61f24"/>
            </g>
        </g>
    </g>
</svg>
