<svg xmlns="http://www.w3.org/2000/svg" width="232" height="36" viewBox="0 0 232 36">
    <defs>
        <clipPath id="ie8lfxk0ca">
            <path data-name="사각형 1" transform="translate(686.5 528.688)" style="fill:#fff;stroke:#707070" d="M0 0h232v36H0z"/>
        </clipPath>
        <clipPath id="uyy8thk8ub">
            <path data-name="사각형 1124" style="fill:none" d="M0 0h231.061v36H0z"/>
        </clipPath>
    </defs>
    <g data-name="마스크 그룹 2" transform="translate(-686.5 -528.688)" style="clip-path:url(#ie8lfxk0ca)">
        <g data-name="그룹 1">
            <g data-name="그룹 12767" transform="translate(686.5 528.688)" style="clip-path:url(#uyy8thk8ub)">
                <path data-name="패스 2746" d="M24.8 37.563c9.958-4.595 16.177-15.844 16.8-21.493-1.7 5.952-8.176 12.408-17.139 16.35q-.6.264-1.2.5a4.172 4.172 0 0 1 1.539 4.643" transform="translate(-2.263 -1.564)" style="fill:#c7c9cb"/>
                <path data-name="패스 2747" d="M37.942 3.049s4.05.887 5.223 4.045c2.426 6.536-4.326 13.978-4.326 13.978s5.217-8.022 2.966-13.24a5.078 5.078 0 0 0-3.006-2.7z" transform="translate(-3.691 -.297)" style="fill:#c7c9cb"/>
                <path data-name="패스 2748" d="M30.586 1.734A40.535 40.535 0 0 0 11.25 5.208C6.109 7.6-1.547 12.859.274 15.048c1.6 1.925 5.545-1.562 3.949-2.939C2.585 10.7.788 13.658.788 13.658c-.139-.251.163-.733.746-1.338a3 3 0 0 1 2.4-.932 1.851 1.851 0 0 1 .451-1.29 2.841 2.841 0 0 1 .642-.6A36.355 36.355 0 0 1 9 7.077a38.941 38.941 0 0 1 21.7-3.931" transform="translate(0 -.159)" style="fill:#00291e"/>
                <path data-name="패스 2749" d="M20.518 12.693c-.918-.741-2.581-1.922-1.725.01 0 0-2.934-1.985-4.794.5a3.4 3.4 0 0 0 .409 4.32l.537.46a6.809 6.809 0 0 0 1.039.636 5.891 5.891 0 0 1-.385-1.145 4.99 4.99 0 0 1-.116-.8 2.829 2.829 0 0 1 .611-2.107s1.544-1.5 3.05-.784a2.31 2.31 0 0 1 .628.442 3.506 3.506 0 0 1 .429.506v.369a3.416 3.416 0 0 0-1.555 0 1.262 1.262 0 0 0-.8.621 1.535 1.535 0 0 0-.167.663 1.308 1.308 0 0 1 .827.951l.536-1.315s.92.454 2.979-.737c1.24-.6.5-1.257.5-1.257-.742-.805-1.138.055-1.29.542l-.879-.793" transform="translate(-1.303 -1.134)" style="fill:#161f74"/>
                <path data-name="패스 2750" d="M31.75 4.13c-1.285 5.256-6.65 9.506-6.65 9.506-5.459 3.642-5.995 7.28-5.995 7.28 2.482-3.391 6.773-2.929 6.773-2.929A23.534 23.534 0 0 0 30.93 11.2a40.316 40.316 0 0 0 2.947-9.054c.488-.6 1.872-.4 1.892 5.869l.005 3.06-8.041 7.341a9.982 9.982 0 0 1 4.6 2.5l5.253-7.56a4.657 4.657 0 0 0 .693-3.484S36.805 2.1 36.106.936c-.894-1.489-1.9-.495-1.9-.495-.08-.411-1.006-.641-1.5-.208a3.753 3.753 0 0 0-.6 2.606z" transform="translate(-1.859)" style="fill:#161f74"/>
                <path data-name="패스 2751" d="M18.8 19.483c.04-.622-.841-1.612-.841-1.612a1.317 1.317 0 0 0-.147 1.475c.031.035.988.137.988.137" transform="translate(-1.717 -1.739)" style="fill:#161f74"/>
                <path data-name="패스 2752" d="M14.188 22.99c-.667 1.229-1.084 2.86-2.568 3.918a3.854 3.854 0 0 0 3-2.172c.9-1.677 1.447-2.95 2.408-3.3-.57.325-1.48 1.317-2.226 4.331a6.418 6.418 0 0 1-2.873 4.018s3.562.208 4.527-2.515a9.684 9.684 0 0 0 .554-3.248c.067-1.251-.079-1.858.566-2.714v-.023h-.016l.022-.006a3.089 3.089 0 0 0-3.393 1.711" transform="translate(-1.131 -2.065)" style="fill:#161f74"/>
                <path data-name="패스 2753" d="M26.486 20.569S23.8 21.6 23.3 23.194c1.177.039 5.727.154 6.94 3.532.629 1.745.818 4.6-1.483 8.314.99-.757 4.773-5.644 4.095-9.368-.115-.635-1.1-4.4-6.36-5.1" transform="translate(-2.266 -2.001)" style="fill:#161f74"/>
                <path data-name="패스 2754" d="M128.162 13.523h-9.556v-1.86h3.624v-1.7h2.484v1.7h3.447zm-4.714 6.638c-2.485 0-4.169-1.266-4.169-3.063 0-1.924 1.7-3.11 4.153-3.11 2.389 0 4.216 1.122 4.216 3.11 0 1.829-1.763 3.063-4.2 3.063m8.673 5.21h-11.078v-4.505h2.565v2.6h8.513zm-6.893-8.289c0-.8-.785-1.283-1.8-1.283s-1.731.481-1.731 1.283c0 .818.705 1.25 1.731 1.25s1.8-.432 1.8-1.25m8.866-.161h-2.5v4.57h-2.5V10.076h2.5v4.89h2.5z" transform="translate(-11.539 -.97)" style="fill:#00291e"/>
                <path data-name="패스 2755" d="M151.321 17.941h-6.2V19.9h4.328v5.917h-2.489v-3.995h-8.93V19.9h4.489v-1.959h-6.2v-1.923h10.133c.16-.978.337-2.613.385-3.543h-8.578V10.55h11.208c-.049 1.475-.321 4.058-.514 5.468h2.372z" transform="translate(-13.262 -1.027)" style="fill:#00291e"/>
                <path data-name="패스 2756" d="M158.992 10.217c2.694 0 4.426 1.666 4.426 3.719 0 2.148-1.732 3.752-4.426 3.752-2.63 0-4.474-1.6-4.474-3.752 0-2.068 1.876-3.719 4.474-3.719m2.02 3.719a1.893 1.893 0 0 0-2.02-1.86 1.862 1.862 0 1 0 0 3.7 1.862 1.862 0 0 0 2.02-1.844m7.247 11.833h-11.287v-4.454h8.337V20.4h-8.337v-1.766h10.9v4.41h-8.337v.961h8.722zm-.385-7.889h-2.5v-7.788h2.5z" transform="translate(-15.033 -.982)" style="fill:#00291e"/>
                <path data-name="패스 2757" d="M180.606 20.019v2.213h6.237v1.988h-15.007v-1.988h6.2v-2.213zm-6.862-.833v-8.369h2.485v2.469h6.3v-2.469h2.485v8.369zm8.786-4.024h-6.3v2.148h6.3z" transform="translate(-16.718 -1.053)" style="fill:#00291e"/>
                <path data-name="패스 2758" d="M198.959 12.741h2.855v.834h-2.855v.77c0 2.019 1.619 3.19 2.951 3.848l-.512.72a6.642 6.642 0 0 1-2.936-2.853 7.376 7.376 0 0 1-3.062 3.255l-.658-.642c1.411-.85 3.191-2.229 3.191-4.328v-.77h-2.853v-.834h2.853v-1.587h1.025zm8.29 13.035H197.6v-5.163h9.652zm-.977-4.328h-7.7v3.5h7.7zm.977-1.731h-.977V15.74h-2.294v3.976h-.961v-8.482h.961v3.575h2.294v-3.655h.977z" transform="translate(-18.947 -1.085)" style="fill:#464749"/>
                <path data-name="패스 2759" d="M210.727 20.966h2l-.208-6.638h1.025l.177 6.621c1.025-.015 2.052-.049 3.013-.08l.209-6.541h1.009l-.224 6.494c1.01-.065 1.972-.129 2.742-.193v.8a79.371 79.371 0 0 1-9.748.4zm.353-8.674h8.32v.849h-8.32zm10.694-1.138h1.01v14.7h-1.01z" transform="translate(-20.502 -1.085)" style="fill:#464749"/>
                <path data-name="패스 2760" d="M230.992 11.635a3.628 3.628 0 1 1 0 7.247 3.628 3.628 0 1 1 0-7.247m0 .881a2.563 2.563 0 0 0-2.742 2.742A2.579 2.579 0 0 0 230.992 18a2.548 2.548 0 0 0 2.725-2.742 2.525 2.525 0 0 0-2.725-2.742m8.161 13.084h-9.717v-4.857h1.01v3.991h8.707zm-.353-4.12h-1.01v-5.772h-2.47v-.85h2.47v-3.7h1.01z" transform="translate(-22.104 -1.085)" style="fill:#464749"/>
                <path data-name="패스 2761" d="M250.849 18.289a7.344 7.344 0 0 1-3.928-3.207 7.284 7.284 0 0 1-3.832 3.576l-.642-.673c1.956-.978 3.961-2.26 3.961-4.714v-1.684h1.025v1.667c0 2.4 2.02 3.527 3.865 4.281zm3.784 7.487H245.3v-6.092h.994v2.1h7.327v-2.1h1.01zm-1.01-3.159H246.3v2.325h7.327zm1.026-3.8h-1.026v-7.663h1.026z" transform="translate(-23.588 -1.085)" style="fill:#464749"/>
                <path data-name="패스 2762" d="M114.082 18.689a1.438 1.438 0 1 1-1.438-1.438 1.438 1.438 0 0 1 1.438 1.438" transform="translate(-10.819 -1.679)" style="fill:#6d6f72"/>
                <path data-name="패스 2763" d="M64.012 15.543h-1.557v-4.2h-6.349v10.444h6.349v-4.373h1.557v7.66h2.151V9.946h-2.151zm-3.69 4.442h-2.064v-6.821h2.064z" transform="translate(-5.459 -.968)" style="fill:#161f74"/>
                <path data-name="사각형 1121" transform="translate(61.824 8.717)" style="fill:#161f74" d="M0 0h2.186v16.108H0z"/>
                <path data-name="패스 2764" d="M76.8 20.219a34.733 34.733 0 0 0 6.559-.472l.209 1.907a38.98 38.98 0 0 1-7.66.489h-1.419V11.264h7.783v1.871H76.8z" transform="translate(-7.247 -1.096)" style="fill:#161f74"/>
                <path data-name="사각형 1122" transform="translate(77.316 8.734)" style="fill:#161f74" d="M0 0h2.308v16.16H0z"/>
                <path data-name="패스 2765" d="M101.147 12.563h-9.69v-1.714h3.69V9.52h2.309v1.329h3.69z" transform="translate(-8.898 -.926)" style="fill:#161f74"/>
                <path data-name="패스 2766" d="M105.311 24.986v1.679H94.188V22.52h8.429v-.84H94.17V20h10.721v4.093h-8.43v.892z" transform="translate(-9.162 -1.946)" style="fill:#161f74"/>
                <path data-name="패스 2767" d="M96.409 13.356c-2.449 0-4.041 1.015-4.041 2.64 0 1.61 1.591 2.624 4.041 2.624 2.431 0 4.022-1.015 4.022-2.624 0-1.626-1.591-2.64-4.022-2.64m0 3.638c-1.119 0-1.819-.332-1.819-1 0-.682.7-1.014 1.819-1.014 1.1 0 1.8.332 1.8 1.014 0 .665-.7 1-1.8 1" transform="translate(-8.987 -1.3)" style="fill:#161f74"/>
                <path data-name="사각형 1123" transform="translate(93.421 8.716)" style="fill:#161f74" d="M0 0h2.308v8.71H0z"/>
            </g>
        </g>
    </g>
</svg>
