<svg xmlns="http://www.w3.org/2000/svg" width="32" height="32" viewBox="0 0 32 32">
    <defs>
        <clipPath id="9w9nsns1qa">
            <path data-name="사각형 4425" transform="translate(67 223)" style="fill:#fff;stroke:#707070" d="M0 0h32v32H0z"/>
        </clipPath>
    </defs>
    <g data-name="마스크 그룹 1" transform="translate(-67 -223)" style="clip-path:url(#9w9nsns1qa)">
        <g data-name="그룹 13221">
            <path data-name="패스 2812" d="M24.456 32.776C32.2 29.2 37.03 20.461 37.518 16.07c-1.328 4.63-6.358 9.644-13.324 12.708q-.466.205-.932.392a3.243 3.243 0 0 1 1.194 3.606" transform="translate(61.059 220.206)" style="fill:#c7c9cb"/>
            <path data-name="패스 2813" d="M37.942 3.049s3.148.69 4.06 3.145c1.885 5.079-3.362 10.864-3.362 10.864s4.055-6.235 2.306-10.291a3.947 3.947 0 0 0-2.336-2.1z" transform="translate(56.68 224.091)" style="fill:#c7c9cb"/>
            <path data-name="패스 2814" d="M23.773 1.713a31.506 31.506 0 0 0-15.029 2.7C4.748 6.272-1.2 10.36.213 12.06c1.243 1.5 4.31-1.214 3.07-2.285-1.273-1.1-2.67 1.2-2.67 1.2-.108-.2.127-.57.58-1.04a2.332 2.332 0 0 1 1.866-.724 1.439 1.439 0 0 1 .351-1 2.208 2.208 0 0 1 .5-.467 28.257 28.257 0 0 1 3.082-1.879A30.267 30.267 0 0 1 23.865 2.81" transform="translate(68 224.512)" style="fill:#00291e"/>
            <path data-name="패스 2815" d="M18.931 12.461c-.714-.576-2.006-1.494-1.341.008 0 0-2.28-1.543-3.726.386a2.642 2.642 0 0 0 .318 3.358l.417.358a5.292 5.292 0 0 0 .808.495 4.579 4.579 0 0 1-.3-.89 3.878 3.878 0 0 1-.091-.623 2.2 2.2 0 0 1 .475-1.638s1.2-1.17 2.371-.609a1.8 1.8 0 0 1 .488.344 2.725 2.725 0 0 1 .333.394v.289a2.655 2.655 0 0 0-1.209 0 .981.981 0 0 0-.621.483 1.193 1.193 0 0 0-.13.516 1.017 1.017 0 0 1 .643.739l.417-1.022s.715.353 2.315-.573c.964-.47.387-.977.387-.977-.577-.626-.885.043-1 .421l-.685-.62" transform="translate(64.004 221.524)" style="fill:#161f74"/>
            <path data-name="패스 2816" d="M28.934 3.21c-1 4.086-5.169 7.388-5.169 7.388-4.243 2.83-4.66 5.659-4.66 5.659a6.133 6.133 0 0 1 5.264-2.277A18.291 18.291 0 0 0 28.3 8.7a31.32 31.32 0 0 0 2.291-7.037c.38-.469 1.455-.312 1.471 4.562v2.379l-6.25 5.706a7.759 7.759 0 0 1 3.578 1.945l4.083-5.876a3.62 3.62 0 0 0 .539-2.708S32.863 1.634 32.319.727C31.624-.43 30.842.343 30.842.343c-.062-.32-.784-.5-1.165-.162a2.916 2.916 0 0 0-.467 2.025z" transform="translate(62.3 225.001)" style="fill:#161f74"/>
            <path data-name="패스 2817" d="M18.542 19.124c.031-.483-.654-1.253-.654-1.253a1.023 1.023 0 0 0-.114 1.146c.024.027.768.107.768.107" transform="translate(62.734 219.668)" style="fill:#161f74"/>
            <path data-name="패스 2818" d="M13.616 22.6c-.519.956-.843 2.223-2 3.045a3 3 0 0 0 2.333-1.688c.7-1.3 1.125-2.293 1.872-2.564-.443.253-1.151 1.024-1.73 3.366a4.989 4.989 0 0 1-2.233 3.123s2.769.161 3.519-1.955a7.527 7.527 0 0 0 .431-2.524c.052-.972-.061-1.444.44-2.11v-.018h-.017.017a2.4 2.4 0 0 0-2.637 1.33" transform="translate(64.533 218.669)" style="fill:#161f74"/>
            <path data-name="패스 2819" d="M25.775 20.569s-2.085.8-2.48 2.04c.915.03 4.451.12 5.394 2.746.489 1.356.636 3.575-1.153 6.462.77-.589 3.71-4.387 3.183-7.282-.089-.493-.852-3.417-4.944-3.966" transform="translate(61.05 218.863)" style="fill:#161f74"/>
        </g>
    </g>
</svg>
